<svg xmlns:xlink="http://www.w3.org/1999/xlink" width="62.36509589442721" xmlns="http://www.w3.org/2000/svg" id="screenshot" version="1.1" viewBox="-0.18254432577100488 -0.46775189972396447 62.36509589442721 70.93550033150763" height="70.93550033150763" style="-webkit-print-color-adjust: exact;"><g id="shape-2839fff0-5c0e-11ec-ab3d-3b38539fb6e4" height="70.935501mm" width="62.365097mm"><g id="shape-283a7520-5c0e-11ec-ab3d-3b38539fb6e4"><path color="#000" overflow="visible" d="M22.774408797929937,55.65868727909208L22.948504629069248,66.07546527285706C22.948504629069248,66.07546527285706,27.88192540025011,69.51925543780396,41.575435644400386,69.57616731208714C55.26894588855066,69.63307918637008,60.53441873888005,65.09354361856106,60.53441873888005,65.09354361856106C60.53441873888005,65.09354361856106,55.04748964133978,25.76034765576412,51.01523969214031,18.77315170212512C46.98325432627007,11.785955748486117,45.62329601006968,7.118335390624111,49.339368879920585,7.459859552988178C53.055177166440444,7.8013837153522445,58.605341679850426,11.344789504044115,59.39591666988963,9.110594948858193C60.18649165992974,6.87640039367227,57.22950836385007,1.3834123378751428,53.19752299797983,0.9849763012282438C49.165273048779454,0.5865138062482629,41.24338356525004,4.841437085976281,41.24338356525004,4.841437085976281L21.588546312869767,5.695273950219303C21.588546312869767,5.695273950219303,19.84917550144928,0.24496318555134167,15.848675551849738,1.9526369140373845C11.848175602250194,3.6603106425233136,6.345636088239189,8.726367037032333,7.37327774196001,11.67210554158737C8.401183979010057,14.61781758780944,13.698142245610143,9.67981952502032,15.595733888369978,9.2386797389114C17.493325531129813,8.797539952802367,20.355323411740756,9.153298698320327,18.50509218504976,13.564749476076372C16.655125541690722,17.976226712165385,5.301854851390999,29.06181844750438,4.716861108759986,29.830274271156327C4.131867366129882,30.59873009480839,6.2347756729705,39.87703247791649,14.52046723525018,40.75931205013433C22.80615879752986,41.64161808068536,28.625139974220474,38.93781457308239,28.625139974220474,38.93781457308239L24.181727530200078,47.305368217664295C24.181727530200078,47.305368217664295,7.2941673262894255,53.36758084962332,8.037381900259788,61.72089991105145C8.780596474230151,70.07424543081243,13.919598492819205,69.12079294282444,14.789283898529902,65.9189113164964C15.65896930423969,62.71705614850134,17.556560946999525,56.19946914727939,22.774408797929937,55.65868727909208ZZ" style="fill: rgb(255, 255, 255);"/></g><g id="shape-283ce620-5c0e-11ec-ab3d-3b38539fb6e4"><path d="M49.87938345644943,-0.4663690971539154C46.51705849881,-0.5101311799357973,43.25077728995984,0.48581339085012587,41.378321063549265,2.3804946169800587C41.11850023348961,2.7006933629460264,39.85617316605931,3.1766523152831496,39.526502336879275,3.078650649851056C34.17636282094918,2.0468550378500368,27.766567068369113,2.625260655563011,22.686302549039283,4.2883785512771055L22.124592139449305,3.795406890821141C19.784352585598754,-0.776963468240865,16.089181798818572,0.5438100567861284,14.286310988199148,1.0338183839461408C9.126406886539371,2.4364010746091935,3.452681958019639,7.6450414256551085,4.044025700569364,13.612877183803107C4.182138198829307,15.007681124564101,4.868202773519442,16.892652142483144,7.366927742039479,16.201877984519115C9.911954793309633,15.348041120276093,12.937200588529777,11.966110537883083,15.90159221785052,10.666292012592066C17.39040261576065,10.013432645817034,17.61000677965967,11.264118046727162,17.255729700789743,12.378331366023076C15.973823466939393,16.41055485689003,7.150233994770133,25.48565724255809,1.7537923960899207,27.633227215502075C-1.2516096493800433,27.72495825601311,-0.38165966034011944,31.46693383387003,1.80697364541993,32.43499132167415C2.302538222509611,32.43499132167415,2.692269467600454,32.75804756760408,2.692269467600454,33.168786729096155C3.6651423720104503,39.30378623513809,13.493619331520676,44.373705546265114,21.570025479770266,42.52559098621521C22.34207963670997,42.26434140617323,24.03250253207989,42.00819828440012,24.80402752236023,41.80547453695419C24.338625444890567,43.330215351078095,23.657323370141057,44.42760117058617,23.585621287710637,45.01100741323614C18.68183384949043,46.63843301773318,10.384765204020368,49.75242006183521,8.20565689814066,53.641451054506206C6.011467342449578,57.61416975445616,4.6991340256499825,62.706049481973196,6.778229832790203,66.9000656791352C8.257250647489855,69.76862522632928,11.343350608610308,71.64076395274333,14.22783807227006,69.62339543649216C16.567283876130205,68.7270664894512,16.93505470482978,66.04286860660113,17.4486109483596,63.42275280627723C17.961902608559285,60.802663464286184,18.621244266919348,58.24665620482119,21.543831730099555,57.60678787954919C21.09404006909881,59.261783067032184,21.37952548216981,61.85361490937919,21.20278381772914,63.5766873876712C20.787123406299543,68.25089587045011,25.254612933348653,66.1902150630782,24.855621271709424,64.04648154841914C24.615908774729178,55.41897478211217,28.606619141119154,41.70144037159821,30.433831618099248,39.65978310565322C35.645594052439264,36.95261938975921,39.40849817169874,33.73525963862619,42.783258545849094,30.50744884595815C43.89239186520899,29.446522609324234,47.18513140705818,25.247717453889095,47.18513140705818,24.213249550255227C47.124541824488915,23.160049146857205,45.729923092058925,21.91449666254914,44.30408352668837,23.01024206541115C41.01769398475881,26.402703064338084,40.600446073348394,27.590840966036126,36.440137792428686,30.574970511774154C36.488821125148206,28.03253637713817,35.70882946830807,25.859063696187263,34.498096150227866,24.15176038436323C33.54956491217854,23.22934352098423,31.78029618446817,24.131652051283254,32.280094094838205,25.615250157592186C33.11617741763803,27.478154925789227,32.95081283638774,29.39648990162118,32.46239200920718,31.44124279252719C32.46239200920718,31.86124237056913,31.788233684367697,33.04469714732625,31.27705869080728,33.522243599643275C28.039881648257506,36.44750335445622,19.997077582916972,39.094289154444255,15.897623467897574,38.603592910626276C12.998319337757493,38.25653895666528,9.978629792467473,36.39810564674531,7.986317317567227,34.25709734038526C6.778229832787474,32.935318398704226,6.7509777497962205,32.847079858149186,7.425665241296883,32.44893486316528C9.509788131706955,31.503049458415376,10.857840198057602,29.652209690066343,9.7156339624471,28.06005304345831C9.141223553016971,27.268684303428245,9.137519386396889,27.036459514687294,9.694467296046241,26.794498059402372C14.549571401546018,24.338344548679288,17.96745885848668,20.61713876222734,19.478758839446527,15.32541924556142C21.906310892196416,10.543842847468454,20.282033829326792,7.791329548812314,17.32319844993617,7.426680803406384C15.599438054986422,7.21596663939431,14.342402654156103,7.787837048856318,12.775275590566707,8.907209743087265C12.017773516776288,9.444631402983305,10.59166936807651,10.305850142133295,11.552636022636761,8.859664118686283C12.262513097027295,8.1973326686973,12.809142256806808,6.755750395192308,12.858090172857374,5.41545062041132C12.970008921446606,3.827553765416269,15.799463052466308,2.4572237826803303,17.56582136354791,4.185535010906278C18.350046353667494,4.833446669410364,18.53657760131773,5.0773395830043455,18.54186926791681,5.466091869773322C18.604310933797024,6.9737406007792515,23.08476504401642,8.146770794334316,24.595800441647043,7.6680072586992765C25.48612334709742,7.2631947637993335,25.886702508717462,6.629517688449255,27.242162908307364,7.616863301010312C29.33872121522745,9.750807232459465,36.270010711236864,9.749960565803349,38.06891277190698,5.685193325346404C38.32714610198673,5.107449165958428,39.56910025300658,4.930469376521387,40.07392524664738,5.399416870613322C40.82401898719672,6.069315403840278,42.11174605430733,6.090429153574291,42.97190646013769,5.651591242436325C47.015798075857674,2.3575552422693136,51.7888813490581,1.1580137990483763,56.43205420722734,4.886283960411447C58.767531261138174,6.761650603451471,58.002356270778364,8.078667045192446,54.76650214487836,7.421521428471351C53.25917091386782,7.116377473982425,51.54678760210754,6.770381853341405,48.946198051537976,6.617426230268393C47.01209390923759,6.463571023873442,45.51375851144803,8.235750168213372,45.42750434586833,10.477670556635303C45.38252517976889,11.847127414382385,46.28422516840874,12.779254485972274,46.70861682972827,13.878995097117354C47.784148066178204,17.43721755228944,50.381827200119005,21.944103537176375,51.41158552047909,26.288588274109316C51.79205634901882,27.843385754521364,51.46820635309905,27.68024367324324,50.22148970213948,28.84967553351032C48.06354806265972,30.957637381953305,45.828612674149554,34.13642088357244,45.108152266559046,37.39592875917435C44.877700186129005,38.307841664352395,45.363739763339254,42.2324061982423,43.865404365548784,42.21682224010533C34.77908364668838,44.08824659152833,33.06590658493951,51.07216171187531,32.2777128448688,59.441911398096295C31.960742015528922,62.811221355648286,34.10413157185849,66.68030276523734,36.2808586277697,68.17853232969537C38.608398181779194,69.72613314353134,39.88871691564873,68.7953554469243,41.400016896610396,67.50828983813938C44.25248977734009,65.07885924374636,43.86487519888942,61.20567679254236,44.498552274239955,58.55333474262443C44.76657518752927,57.43150142342449,47.6346584847297,53.9424145923814,47.66720223431912,55.44141144849641C49.22321679805009,60.84502325541939,54.54372298101953,60.02227493245152,57.35968336220958,57.9198164172725C57.69782085794941,59.61608660423542,57.74200627406026,59.988725766207494,57.74200627406026,61.083439294082496C57.69252919134942,62.59124677508646,57.87906043899966,65.11447215996441,58.86701459322012,65.50163694675348C60.248404159150596,66.4705146428804,62.759829127509875,65.70949361080147,62.0626520529604,62.77997406437544C61.883793721880465,60.92635617106146,60.91409581743028,55.051415620076455,60.77836456914065,52.788804815248454C59.32977083739115,38.94937686460344,54.637385479840304,24.15924809260241,49.26872513081071,11.468376377487516C48.05084806282048,10.414911390759471,48.84592096947017,8.76957349482143,50.534227198199915,9.361023070703482C52.90198341837004,9.332051196068392,57.519491693530654,11.530315335040427,60.459806239819954,11.37484617033249C62.84211454314027,10.915582426118476,61.78351663980993,9.155970989953403,61.18635206399995,6.8330087275523965C59.91344166336967,1.8827869149174603,54.79375422786961,-0.40284263962064415,49.87938345644943,-0.4663690971539154ZZM35.4241378052302,11.714809291049164C35.2455440574804,11.717455124349158,35.050016976610095,11.742378874035126,34.83649822929965,11.79439595671306C33.982687823389824,11.786193873483171,33.55273991214017,12.36928261613707,33.27942533224996,13.906935096765096C33.016958668890766,15.384183203153952,33.13337533409049,16.138245693654085,33.707256576859436,16.670058186954066C35.516212804069255,18.30237858305611,36.598887790430126,15.454879868930107,37.10238986741933,13.717281765820985C37.097098200819346,12.810686985576012,36.67429403947972,11.699622207907055,35.4241378052302,11.714809291049164ZZM27.593000403890073,12.816560735502094C26.942389995419944,12.803331569002012,26.38359000245964,13.038651982704096,26.195735838159635,13.528660309864108C25.645667095089266,15.133305289648206,25.353567098769417,17.546040675918107,26.903231662579856,18.560902954799076C28.548146225190067,18.878958575792126,29.30035663237959,18.048431502922085,29.649077461320303,16.379122357286178C30.004942040170135,14.657346337311083,29.978748290499425,13.996417178971114,29.540069129359836,13.596869892338077C28.985502469678977,13.09170094036915,28.243610812359293,12.82981636033503,27.593000403890073,12.816560735502094ZZM44.749641854409674,46.157552815458075C45.39205017965014,46.68134843385906,47.205768906799676,47.79942466977309,47.97570639710011,47.79942466977309C49.189614715140124,48.401748620518106,48.19875014428999,49.88627276848206,47.25339390619956,50.12537672380313C40.23108774466982,51.74698149504013,41.36588564704016,57.44981058986002,39.151323174940444,62.04403553198006C37.91598360716944,64.2521950874941,37.136256533659434,64.07492425639407,36.57004820745988,61.30140304133613C35.63553988589956,56.722814974019116,38.25332735291977,49.463468607142204,41.208723149019534,47.503329465170054C42.43215646693989,46.69185239206013,44.749641854409674,46.157552815458075,44.749641854409674,46.157552815458075ZZM22.93289421260033,49.66338777128999C22.22672130482988,51.21281421010303,22.440769218800597,52.57774669290711,21.842017143010708,53.653860012683026C21.634054645630385,55.124202494159135,15.790996385911058,54.56934479281597,14.123592240251128,61.003799711752094C13.24041308471078,63.652993220043186,11.08458811187029,67.81803754257021,10.089754791070845,63.32406322418706C9.69949437932155,61.31217158286711,10.223104789391073,59.32438348291009,10.893823530941518,57.96262600006605C13.033508920651002,53.716275220230045,17.426385948640927,51.48038733173212,22.93289421260033,49.66338777128999ZZ" style="fill: rgb(3, 3, 3);"/></g></g></svg>