<svg xmlns:xlink="http://www.w3.org/1999/xlink" width="72.49866272424708" xmlns="http://www.w3.org/2000/svg" id="screenshot" version="1.1" viewBox="-0.24933024031736295 -0.3150116988505829 72.49866272424708 80.6300955675581" height="80.6300955675581" style="-webkit-print-color-adjust: exact;"><g id="shape-28258d90-5c0e-11ec-ab3d-3b38539fb6e4" height="80.63015mm" width="72.498657mm"><g id="shape-282602c0-5c0e-11ec-ab3d-3b38539fb6e4"><path color="#000" overflow="visible" d="M61.98382957837816,2.5563774954798646C62.140550791377564,2.559916361580008,63.396848256878684,2.7879457264950815,63.55887776902796,2.8382734579599855C67.0148332918277,3.9129007044548416,63.58415538402801,17.94412562672983,63.58415538402801,17.94412562672983C65.10131783632801,27.18744165901012,68.69554191317798,43.66182390387985,69.35655154542724,65.22709253213475C69.69274382492836,67.50723451559497,70.00087795177728,69.42244357129971,70.26098461012839,70.76198022299468C63.441842411578136,71.32091884587476,57.9932524983285,72.58533042578983,50.62508050197789,71.9207060945946C50.62508050197789,71.9207060945946,49.312919507327706,77.7938082741548,44.19900521667819,78.25788000793978C39.085343702178534,78.72187590887984,39.149801620428434,71.24829625797975,39.149801620428434,71.24829625797975C33.82709422987841,72.6374275903047,26.631821120128507,71.10368302256461,19.42441475517876,69.55143524064465L20.701692641128602,58.67811748270469C16.430281258428067,59.15374108654464,10.100260910128554,59.3239858235695,9.174089096529087,63.30558935029467C8.224661877128483,67.38822750417467,5.692855958728387,70.42619238533462,3.6180693195290132,67.21917081505467C1.5432826803287298,64.0121239671596,0.11332799977822106,54.06439663767469,8.18977876842905,51.77515471281458C11.347711210378066,50.35591774102454,21.539645578378213,51.539365120094544,21.793685609128943,49.376738768769656C24.362396845428293,37.77656319150469,22.888964667078426,32.18196977401453,23.935963480378405,23.771803932134617L24.571189945327887,15.538303341489609L26.601487982127537,4.433417352534661L33.204759348577454,12.026105125314643L56.928559354527124,11.68543870795952C56.928559354527124,11.68543870795952,58.814269433527215,2.4890632067344995,61.98382957837816,2.5563774954798646ZZ" style="fill: rgb(255, 255, 255);"/></g><g id="shape-282873c0-5c0e-11ec-ab3d-3b38539fb6e4"><path d="M62.00961274567794,-0.3150079028298478C64.55481580002811,-0.33421889022997675,66.83005392617792,4.083954325160221,67.18166555082803,7.04709746592016C67.24030961762742,10.33945626444006,67.91193584817734,11.319545230835047,66.17283593617753,16.9572117042851C66.22465504692786,24.293862514730108,71.52183204632706,51.43084831890019,72.15554185437736,63.22659680342008C72.02232882332805,66.00357030970508,72.84739017692823,68.23141290772992,71.22406174162711,70.56352566763007C69.93566170507688,71.92816299102037,69.35983763537729,71.62222801667508,68.0989901991768,71.03598956959513C67.1437491283275,70.59178604120007,67.33585900232697,67.08835915742998,67.5173522780276,64.56896454799517C67.71628710807704,59.13187594957026,66.4895644521273,52.54918056173028,65.73300543517666,43.45376385481518C65.60661736017732,41.960008474005235,65.57906475982668,41.92780479249518,64.5950072078765,42.138063994065305C63.716610086626815,42.31857144278024,62.728508116277,42.181187605255445,61.80916125872659,41.9963576843752C60.983594352826685,41.8540194343102,59.780379878826125,41.55432803087024,59.452529212276886,40.71619815031522C58.85446084137652,38.637442925560435,62.802824304377054,39.309726374100364,64.40340288617676,38.81097375253535C65.0199239160263,38.62604272119529,65.02472666287645,38.6179033291653,64.91982456062647,37.86061126138043C64.84020007337745,37.28438274984046,64.9562243262269,37.46663435399023,64.61725150907637,36.75077229719045C64.09830207312712,36.744958445740394,63.525764093376665,36.68403939359041,62.92440963252716,36.8983682911753C61.27327582072735,37.030165775785235,59.76470775752637,36.76510470489529,59.32133839042649,36.26594764149036C58.38126388857631,35.154819518935255,59.61203096292661,34.50778840778048,60.76039301237665,34.04624443549551C61.88625798447697,33.59387623745533,63.03335615317587,33.70517357630047,64.21533743057694,33.60143424434045C64.2229207150765,33.24145572912539,64.28788418562704,32.98134907077565,64.25350662922733,32.81446625654553C64.20269862307737,32.56768090130049,64.01109430137763,32.524835343875566,63.22849934097735,32.58438940481551C59.899184669327724,32.83802499372541,59.58119227262682,32.81214071596537,58.85623027442739,32.227949755700365C56.55040623412765,30.304500197505376,60.16990792597767,29.577136825880416,61.88651076062774,29.4375285582355C63.16581085577832,29.253507521035544,63.67085760347777,29.123934466545506,63.7284905656777,28.966050483255458C63.132697180127934,24.622370399270494,62.70398882972745,23.248582579250296,61.917602227077396,18.638274212245506C61.55183513802763,15.91218454495538,65.48553758432786,11.81941006746024,63.54446952847843,7.5837412323703575C63.060655977377564,6.036751194370481,62.73887193842779,5.29497958219531,62.29979976587833,5.245561844870508C62.03615424142822,5.2158859248604585,61.73029509992807,5.4354725663654335,61.32281994612799,5.87997942614038C60.00888951842785,7.280182353835471,60.81246489927776,12.49844263920545,57.38835917137817,13.668164273330376C55.71750881987805,14.433823231680435,54.27137646572896,14.067146148490338,52.748652938128316,14.118914704010194C52.94051003597792,15.049434267390325,52.840916232878726,15.665500300170379,52.26913658157787,16.596803469615224C51.73527335277754,17.448608539885527,51.29872894172763,17.598732295370382,50.660721939127825,17.149751297740295C50.17488617882805,16.807618778715323,49.95143206222724,15.803339134765338,49.49213779767774,14.321818119615273C49.329855509377694,13.813788613345423,47.74848791497766,12.946741141230177,47.376654198328424,14.350457657410288C47.01998705067831,15.696692877080295,47.29804081567795,16.097267241985264,46.676464262828404,17.043105040055252C45.97147158047824,17.92104716423546,45.195954352277795,18.618684060620353,44.36659580412811,16.737498674705193C44.04936173587771,16.049821158630266,43.9308097215287,15.09526258338542,43.894157179778404,14.06163562842039C43.63986437287872,12.828113294035347,42.91616625542861,13.101060980805187,41.859561948429246,13.73234413781529C41.378023382678975,14.833133715835174,41.19450789777852,15.665828909165384,40.16747840032872,16.156922413385246C39.263550887929114,16.32436133514534,38.7193238369789,15.381101853805376,38.42281741302918,14.475859905425068C38.13667481122934,13.769957228935255,38.13591648277975,13.769704452785163,37.29922742627946,13.829587122720113C36.838416504829866,13.862549132680215,35.68904335077946,14.041084927425118,34.7451772066795,14.22604123638007C31.891840025479496,14.667818113735166,30.430793878480245,10.255458749795025,29.210390626279832,7.89430201026039C28.4765814628297,6.600062844645208,27.563806785179395,6.964035223030351,27.013260330479852,8.555842472425411C27.038537945478993,11.235396050500185,27.24505606002981,14.534807303605248,26.675298617929684,16.01620193068038C25.048178540379695,21.770094877900647,23.4731303497299,28.314545234245543,24.681147570579697,35.98748943465057C26.463219428080038,37.13193345377567,29.25007648183032,34.09166830965046,29.350428613380018,31.74411092698574C27.524626481930454,31.287673032930797,25.819904126330357,27.31997219445566,29.3916311258306,26.618973375275573C30.514715560280592,26.259323469055516,31.18128626783141,26.174087351275602,33.43604952583041,26.101591151455523C37.10534811923003,26.034352695555754,37.28355530498061,30.50100837651553,33.53463222433015,31.212901847760577C32.52731926658066,32.30666424881065,35.186018812280736,37.0022592888256,36.53584345328068,37.770269065370485C38.51204739398031,38.89522404333047,40.39396583072971,37.24381217776545,41.86992577058004,35.962818482410285C42.37320308523044,35.38909245475543,43.6841001991304,35.322157330235314,44.023831344730525,35.85270919147047C44.935089365479826,37.58035834387556,40.500384589880696,40.86958271813546,38.75951524483003,41.37280947755539C36.30960879903046,42.19172837071051,34.01667634238015,41.36219287925542,32.60947151532923,39.3111166429253C31.990169947829372,38.315583053765295,31.391343248479416,37.46314604312033,30.884021515429367,36.4081342258653C30.205823104979345,35.56997906769516,30.383524738429287,36.411925868115304,29.82943941762983,37.101296984395276C29.04103060577995,38.427158446375415,27.111337476679864,39.9068847508604,25.161927807879465,39.84629430770542C24.775685850679793,45.967622666565376,24.416996493829856,50.301216982165215,24.15183431247965,53.78649453836533C23.94076622723037,56.5611425040704,22.736540648630353,66.87135083265548,22.736540648630353,66.87135083265548C21.955462345130172,74.30663489683047,17.92747439487971,70.80201996515552,18.298297006930397,67.27238019463061C18.487120790979816,65.47511649051557,18.016198823529294,64.71592860160536,18.250269538430757,60.41150465371561C15.85673217407998,60.99736393657031,11.692245102830157,63.37773166350553,10.147024497879784,67.33279369448042C6.493650801929789,73.98515418926058,-0.9602123092693091,69.0588756347554,-0.1945533509199322,63.07609388371043C0.416912155930504,60.567871980105565,0.8312122657805503,58.06574198171552,2.2171838962301536,55.495766864665484C6.705729991780345,47.66521673473562,14.275870131980582,47.969533941720556,20.597801643480807,47.90853905672566C21.34248018138055,38.77806229780572,20.23203455443013,28.584788216210427,21.648339322879792,18.914811320345507C21.946867956030246,17.10751240307536,22.311876716630422,15.21419376196036,22.76358769668036,13.219461329465275C23.649062550130793,9.549379130000261,22.297468476079985,5.381555413570368,24.85834365172991,2.0202898365605506C25.90736467423062,0.8284250116953444,28.119155986730902,0.8253664202804885,29.574641058430416,2.016750970460407C32.057913956030234,4.497420273715306,33.273261685230636,7.076040335095513,36.01790512193088,9.992040723880336C44.74828779063023,9.300748508860352,49.06166001423003,10.022121085730305,55.37272215128064,9.597077989505351C56.772596469980954,7.448986266805605,57.4161645478805,5.403850270000248,58.52635739868015,3.0150145420404897C59.63983633942985,0.6192527475704992,60.8526563071307,-0.306287125654535,62.00961274567794,-0.3150079028298478ZZM40.293613699178195,19.01791871192995C41.247085336978444,19.003257695230104,41.84717591707863,19.72233000913502,42.18286264427729,21.233653332370068C42.35449765012777,22.01776494966998,42.40530565627773,23.31523965000497,41.539041790227884,24.17713048865994C41.068878151227864,24.58121844204993,39.77390593477753,24.522776596169933,39.114412959427455,24.286228674999847C38.03606990352796,23.802086514904886,36.916018782878155,19.980363903054695,39.21880950937771,19.275143722169787C39.61844860252745,19.109322567769823,39.97587407862807,19.022847846854802,40.293613699178195,19.01791871192995ZZM50.789637775628535,19.260836592080068C52.388446924378286,19.260836592080068,52.684195019878416,20.92721280572505,52.53530986752844,22.57308887360523C52.39350244737739,24.055949602349983,51.4946304579787,24.956894356180328,50.01159278592763,25.153680588955012C48.68628743147815,24.9464799788002,48.20601274647811,23.62377821869518,47.9562699102778,21.595552946324915C47.96132543327781,19.784715162954853,48.58517697147795,19.27195874268,50.789637775628535,19.260836592080068ZZM49.83717724242865,50.32909819150996C50.213308153628304,51.53302043873009,48.897102740578475,53.44522145824999,47.69565769962787,53.713922505699884C42.81960576612778,55.208865934414916,41.078989197227884,61.43967164384003,41.285760087927656,65.75238664945005C41.40481765457821,67.47687609997979,41.05598656757752,69.24681470228006,41.825942720477315,71.1362153130699C42.0246247743778,71.75319133999005,42.15404616317733,71.91668695380986,42.48417181507716,71.97007327668985C43.63531440217753,72.18526161318482,43.23719196592697,73.99503773672473,43.842338069027164,74.76691498836476C44.40880942117815,74.98101638741491,44.41512882492748,74.77879546741474,43.929545840777564,72.48550912415476C43.632533864528114,71.08710090712475,42.944477184227026,68.3703134021548,45.47198590807761,69.00834568236974C45.920663574327364,69.23220424080955,46.353669119277356,70.2649464792496,46.692389160278026,71.90837061847469C46.88096016817758,72.82822302832483,47.08874216347772,73.56951436581494,47.15446396247785,73.55586445371478C48.329620283828035,73.03236504706479,48.268954007827915,65.8629256598449,48.59276025597751,64.9353130221898C48.28361502452731,60.1441180422446,52.74208075822821,57.17270912137974,55.32140859282731,56.51913110793976C58.65805377282754,55.673645441419694,59.2495499638278,58.04038853386987,56.872948601527014,59.76621769799476C56.93285654907754,59.757370532744744,56.99150061587693,59.74624838214481,57.051155787277594,59.737097885514686C51.12178563672819,64.72780908065465,54.655596213727904,68.90637578345968,52.031274224427534,74.05006710457974C49.44840752372761,79.1127689472396,41.697026883976605,83.82787830603456,38.861636809427864,76.63854543580965C38.43672010127807,75.56078376505457,38.073733549878625,74.52589292933976,37.766610527628245,73.53068794917476C36.51006028597817,68.09754265868969,36.37179173192794,63.60404215059975,37.67839165127839,58.96860783428474C39.51784369482789,52.4444554027848,42.19600700407841,51.56231719451489,44.646924554478346,50.10013355483966C46.92469044212771,49.1374103099497,49.29952237137854,48.77513153176983,49.83717724242865,50.32909819150996ZZM5.263642056028175,59.16686016873018C6.104628307078883,60.56357478555515,6.5459754649789375,60.65197060521018,6.0669646607282175,63.86445214033006C5.634970220378591,65.19792216442511,6.449162199528246,65.64718121581996,7.434483632228648,64.01257896423022C10.46526967072873,59.64053739621522,13.764756756678935,56.79152268718008,18.54045655862842,56.89781505825522C19.345801372529195,56.560005011395106,19.998722167979167,52.168297458910274,19.26516578067799,52.30242048410014C13.146213517628667,50.62193936128506,6.776254537628802,54.86471120619012,5.263642056028175,59.16686016873018ZZ" style="fill: rgb(3, 3, 3);"/></g></g></svg>