<svg xmlns:xlink="http://www.w3.org/1999/xlink" width="18.41422648493085" xmlns="http://www.w3.org/2000/svg" id="screenshot" version="1.1" viewBox="-0.0002727870084981987 -0.07134167388267088 18.41422648493085 22.807394373522584" height="22.807394373522584" style="-webkit-print-color-adjust: exact;"><g id="shape-edc70bb0-5cdf-11ec-8442-c1caae776c6e" height="67.632538mm" width="52.99622mm"><g id="shape-edc70bb1-5cdf-11ec-8442-c1caae776c6e"><path color="#000" overflow="visible" d="M9.722997350452715,3.9386334703303874C5.366256969057758,3.887662351439303,1.794925087102456,7.130454486783492,1.7420799939914104,11.185357351449056C1.7178884366694547,13.04191158820504,2.4495147680258924,14.839513902851195,3.7899461770430207,16.216954538666414C3.2667714617116417,17.57095250832117,2.462947134577462,20.686907781640457,4.02733559896933,21.638952463873466C5.508037893731171,22.539979966066767,8.970768941544975,19.667047892151913,10.14811335915897,18.623992333616116C14.266187156274555,18.383277105011985,17.48486166519615,15.23165130620373,17.534888473150204,11.391092282765385C17.58773978162617,7.332093629698193,14.095248534494203,3.995584475236228,9.722997350452715,3.9386334703303874ZC9.730451841970535,3.938728124356203,9.726724611509553,3.9386795692489613,9.722997350452715,3.9386334703303874ZZ" style="fill: rgb(255, 255, 255);"/></g><g id="shape-edc70bb2-5cdf-11ec-8442-c1caae776c6e"><path d="M4.346995610639624,22.273434552454546C3.186273400936898,21.676757218269813,2.7190585252196797,21.165064002616873,2.3822681691458456,20.121312673622924C2.3389038447762687,19.98704481845698,2.4735745061886973,19.507355736349837,2.6816207643887537,19.05532056198217C2.9560934886139876,18.458671423140004,3.032060174657545,18.127369506022205,2.9592363284748444,17.846378235710745C2.776855053595682,17.14312804674273,2.7886468028350464,16.638100451913942,2.993957144685055,16.359705623681748C3.249823405947609,16.012745072317102,3.2523444714383913,15.870147874518352,3.0032202402644543,15.866902501369168C2.7674571793431824,15.863831185890376,1.8569271677765755,14.882856846218147,1.7395834670739987,14.505372504936986C1.6841939324554005,14.326580783989812,1.4217344533244614,14.175665688893332,0.9502341058837374,14.051139905416676C-0.07210623335913624,13.781183884424081,-0.17776777528979437,13.358152389822408,0.7616983541583977,13.296504170813023C1.2310518363774463,13.265716745391728,1.2352679373677802,13.233088316407247,1.0088777821406438,11.404681810141938C0.8800049835870141,8.143604049147598,2.6574616618704567,5.857268211392238,5.339078707880162,4.291504022685331C5.90580335232471,3.9669375546100127,7.396536841024044,3.5886715271899448,8.025455203262936,3.429858422860434C8.506319679991748,3.308460586644742,8.726794891988902,3.408328203259316,8.464962719973755,3.245635661349752C8.16853151449618,3.0615576560571753,7.789731440082505,1.9978137151315423,7.794763537598101,1.3641756106685534C7.7413745114222365,-0.5469187514163423,11.240246561629192,-0.09744515666716325,11.462073898066137,0.9608218045577814C11.51316734396687,1.5421465280564917,10.921878149312306,1.999013580432802,10.206447005112068,1.9309227384392216C9.628270845673796,1.8759152569255093,9.480540396448532,1.4665358233332881,10.03932181561504,1.4679778360414275C10.221760258907125,1.468411800501599,10.435770958788908,1.3588108259850742,10.515334306141312,1.224312691401792C9.390414183460507,0.17108062001443614,8.197643793447696,1.299709365079707,8.804771349817656,2.639014134196259L9.116340259945446,3.2616422036576296C12.613145499755092,3.1786175756719786,15.53363488441164,4.658403279655886,16.994541188554194,7.340938292054943C18.099608224372787,9.394329455585648,18.546176485418755,11.956534638221456,18.068100518733445,13.500818623534087C16.97622759457522,16.57495408724344,14.91703227890207,18.487880580047204,11.611759109636068,18.855450346100042C10.963903702670905,18.918288667548495,10.848999187317759,18.986515660734312,10.319059652014857,19.6230013984964C9.999302836720062,20.00721550499884,9.514450384320071,20.427466514765,9.241704624968861,20.55688554415474C8.9689589861091,20.686295324237108,8.485931476063342,21.061037285275688,8.168510582105682,21.389619288012454C7.058795360462227,22.537674494818475,5.54359235283755,22.888165148204735,4.346995610639624,22.273434552454546ZZM6.3429816934194605,21.305799690733693C6.6080082961962034,21.15052565800579,6.825740733685052,20.966216820331283,6.82665297828612,20.896190305430537C6.829274280794834,20.69497159830007,6.455134174321984,20.743123661214668,6.257516254946495,20.96939749219473C6.158897297371823,21.082499879354145,5.889981315807745,21.172569309507708,5.6600933793949935,21.16957453002442C4.936694984269934,21.160150726821485,4.446309313380425,20.775623512937273,4.045960328386627,19.903702588238957L3.8845866632304933,19.552176181659433L3.8671888754247448,20.007370272087883C3.8202852237309344,21.22880951291245,5.220514264051872,21.963142454759236,6.3429816934194605,21.305799690733693ZZM7.780931299180793,19.319200675254706C7.919951409309306,18.64386592571782,7.758014359222898,18.553845255597025,7.490274232250158,19.15750175773428C7.217650908834003,19.77224195407507,7.216864244255248,19.803527427035988,7.473285001028671,19.806867852955747C7.597420696288282,19.808484984498136,7.720225778531585,19.61395691332291,7.780931299180793,19.319200675254706ZZM6.1089966966833344,19.092781493246093C6.262055157966643,18.860358151845503,6.256008762405145,18.800675976456205,6.071656389422969,18.728902058971016C5.826105236185867,18.633259206942967,5.2517831292179835,19.05358430178103,5.3685382049584405,19.24344391426166C5.502929471097559,19.461803959413373,5.9223830606233605,19.376470865347073,6.1089966966833344,19.092781493246093ZZM9.568780886581408,18.28670699312306C10.084668965921992,17.11373704354537,9.524465555337883,15.308049979008956,8.48838337064717,15.11079335967679C6.846100921143716,14.7980519787111,3.7058981882260014,15.342502725783561,4.091588315056924,17.07049397356468C4.163416995005264,17.26054539792176,4.239423074858678,17.253607536208165,4.710550146691276,17.013921382367243C5.522668104146305,16.60068121291988,6.825334896537925,16.348459914803243,7.424107285817399,16.488483001192435C8.00058052014765,16.623284875565787,8.284067547805535,16.935235660524995,8.786231635008562,17.98708039801977C8.97849781911168,18.38987982458866,9.190000486978079,18.72016243939106,9.256427297952769,18.72102778993394C9.32275934885547,18.721891906025576,9.46329950569907,18.52644776303532,9.568780886581408,18.28670699312306ZZM16.802004793866217,11.957005042668243C16.809926220402758,10.53410114835333,16.758437356771083,10.1359109093587,16.444458470918107,9.203559795443198C14.738103628598765,4.736912979308727,9.842945145906015,3.06857830186118,5.622448275806164,5.550983727669973C3.770262448328822,6.640392525976949,1.2139928569436051,9.424307867487641,2.655457294338703,12.711671049306005C2.7144833664622183,12.771368083593643,3.0017676995335023,12.726349194284012,3.2939410674694045,12.611596119060323C3.8805737328061696,12.381222412523584,4.096188750034344,12.439481020778658,4.091140257558436,12.827017798992529C4.087927701020362,13.073622863092169,3.431928056554625,13.703433921986289,3.0566104629924666,13.820147405700027C2.919006988089677,13.862916307947216,2.9386094673718617,14.01693976933484,3.13862605516033,14.465021450514996C3.2831118506517214,14.788806494025721,3.4515579948767936,15.084873511119895,3.512855979705364,15.122953086923644C3.5740590839686774,15.16104067758397,3.8681214548737444,15.039512815169019,4.166348932680194,14.852894527869921C5.02176097334268,14.317403697029022,5.863336898505622,14.10193326837225,7.039307714041115,14.11738230254241C7.950141533001442,14.129247850929914,8.267564158769346,14.200673843984077,9.039579135920576,14.56686203954905C9.544271304969243,14.806244329539368,10.070757177499218,15.140574765472138,10.2096742623512,15.309806849669258C10.591813912586986,15.775256744782382,10.96701895777187,16.700273937754446,11.069272102630293,17.428595516496443C11.157298439854458,18.055860184942503,11.17597247945514,18.07744523004021,11.567756836996523,18.006247811492813C15.127426057727007,17.113563430905288,16.78498795644191,14.478239726996435,16.802004793866217,11.957005042668243ZZM4.045737765832655,11.874316700042073C3.878500205087221,11.689183456898263,3.82114072572017,11.42880108017016,3.857274820064049,11.019513404777626C3.960182945338147,9.856908507331354,4.837848914941787,10.01398780024374,4.82249944463274,11.192257214229812C4.810096484622363,12.144344037356404,4.519793426876731,12.399263031153168,4.045737765832655,11.874316700042073ZZM7.0481242469234076,12.080120746084049C6.63207431276669,11.969657088575332,6.463143668397606,10.561285918081921,6.838403414943286,10.332608301973323C7.411323090040469,9.983561455739164,7.946608894705605,10.748227870933533,7.717769994891569,11.588667824345976C7.5754264977990715,12.111699075456272,7.4669131862929135,12.191313900826117,7.0481242469234076,12.080120746084049ZZ" style="fill: rgb(3, 3, 3);"/></g></g></svg>