<svg width="48" height="48" viewBox="0 0 48 48" fill="none" xmlns="http://www.w3.org/2000/svg">
<path d="M24 48C37.2548 48 48 37.2548 48 24C48 10.7452 37.2548 6.5022e-07 24 4.18879e-07C10.7452 1.87539e-07 -1.87539e-07 10.7452 -4.18879e-07 24C-6.5022e-07 37.2548 10.7452 48 24 48Z" fill="#EEF4ED"/>
<path d="M23.9999 11C24.3355 11 24.6075 11.272 24.6075 11.6076V14.2543C24.6075 14.5899 24.3355 14.8619 23.9999 14.8619C23.6644 14.8619 23.3923 14.5899 23.3923 14.2543V11.6076C23.3923 11.272 23.6644 11 23.9999 11Z" fill="#476643"/>
<path fill-rule="evenodd" clip-rule="evenodd" d="M23.9541 28.8918C27.2081 28.8918 29.8459 26.254 29.8459 23.0001C29.8459 19.7461 27.2081 17.1082 23.9541 17.1082C20.7001 17.1082 18.0623 19.7461 18.0623 23.0001C18.0623 26.254 20.7001 28.8918 23.9541 28.8918ZM23.9541 27.6767C26.5369 27.6767 28.6307 25.5829 28.6307 23.0001C28.6307 20.4172 26.5369 18.3234 23.9541 18.3234C21.3713 18.3234 19.2774 20.4172 19.2774 23.0001C19.2774 25.5829 21.3713 27.6767 23.9541 27.6767Z" fill="#476643"/>
<path d="M31.8778 26.8467C31.5872 26.6788 31.2156 26.7784 31.0478 27.0691C30.88 27.3596 30.9796 27.7313 31.2702 27.899L33.5623 29.2224C33.8529 29.3902 34.2245 29.2906 34.3923 29C34.5601 28.7094 34.4605 28.3378 34.1699 28.17L31.8778 26.8467Z" fill="#476643"/>
<path d="M24.6075 31.7457C24.6075 31.4101 24.3355 31.1381 23.9999 31.1381C23.6644 31.1381 23.3923 31.4101 23.3923 31.7457V34.3924C23.3923 34.728 23.6644 35 23.9999 35C24.3355 35 24.6075 34.728 24.6075 34.3924V31.7457Z" fill="#476643"/>
<path d="M17.9999 12.6077C18.2906 12.4399 18.6622 12.5395 18.8299 12.8301L20.1533 15.1222C20.3211 15.4128 20.2215 15.7844 19.9309 15.9522C19.6403 16.12 19.2687 16.0204 19.1009 15.7298L17.7775 13.4377C17.6098 13.1471 17.7093 12.7755 17.9999 12.6077Z" fill="#476643"/>
<path d="M31.2702 18.101C30.9796 18.2688 30.88 18.6404 31.0478 18.9309C31.2156 19.2216 31.5872 19.3212 31.8778 19.1534L34.1699 17.83C34.4605 17.6622 34.5601 17.2906 34.3923 17C34.2245 16.7094 33.8529 16.6098 33.5623 16.7776L31.2702 18.101Z" fill="#476643"/>
<path d="M13.6076 16.9999C13.7754 16.7093 14.147 16.6098 14.4376 16.7775L16.7297 18.1009C17.0204 18.2687 17.1199 18.6403 16.9521 18.9309C16.7844 19.2215 16.4128 19.3211 16.1221 19.1533L13.83 17.8299C13.5394 17.6622 13.4398 17.2906 13.6076 16.9999Z" fill="#476643"/>
<path d="M12 23C12 22.6644 12.272 22.3924 12.6076 22.3924H15.2543C15.5899 22.3924 15.8619 22.6644 15.8619 23C15.8619 23.3355 15.5899 23.6076 15.2543 23.6076H12.6076C12.272 23.6076 12 23.3355 12 23Z" fill="#476643"/>
<path d="M32.746 22.3924C32.4105 22.3924 32.1384 22.6644 32.1384 23C32.1384 23.3355 32.4105 23.6076 32.746 23.6076H35.3928C35.7283 23.6076 36.0004 23.3355 36.0004 23C36.0004 22.6644 35.7283 22.3924 35.3928 22.3924H32.746Z" fill="#476643"/>
<path d="M28.8988 30.2702C28.731 29.9796 28.3594 29.88 28.0688 30.0478C27.7782 30.2156 27.6786 30.5872 27.8464 30.8778L29.1698 33.1699C29.3376 33.4605 29.7092 33.5601 29.9998 33.3923C30.2903 33.2245 30.3899 32.8529 30.2221 32.5623L28.8988 30.2702Z" fill="#476643"/>
<path d="M18.0002 33.3923C17.7096 33.2245 17.61 32.8529 17.7778 32.5623L19.1012 30.2702C19.2689 29.9796 19.6405 29.88 19.9312 30.0478C20.2217 30.2156 20.3213 30.5872 20.1535 30.8778L18.8302 33.1699C18.6624 33.4605 18.2908 33.5601 18.0002 33.3923Z" fill="#476643"/>
<path d="M13.6076 29C13.4398 28.7094 13.5394 28.3377 13.83 28.17L16.1221 26.8466C16.4128 26.6789 16.7844 26.7784 16.9521 27.069C17.1199 27.3597 17.0204 27.7312 16.7297 27.899L14.4376 29.2224C14.147 29.3902 13.7754 29.2906 13.6076 29Z" fill="#476643"/>
<path d="M27.8467 15.1222C27.6788 15.4128 27.7784 15.7844 28.0691 15.9522C28.3596 16.12 28.7313 16.0204 28.899 15.7298L30.2224 13.4377C30.3902 13.1471 30.2906 12.7755 30 12.6077C29.7094 12.4399 29.3378 12.5395 29.17 12.8301L27.8467 15.1222Z" fill="#476643"/>
</svg>
