<svg xmlns:xlink="http://www.w3.org/1999/xlink" width="36.000381009453235" xmlns="http://www.w3.org/2000/svg" id="screenshot" version="1.1" viewBox="-8.22529557353846e-7 -3.607885901146801e-8 36.000381009453235 35.000000476173454" height="35.000000476173454" style="-webkit-print-color-adjust: exact;"><g id="shape-efe55e30-5ce7-11ec-b471-07a139318957"><g id="shape-68dc71f0-5ce0-11ec-b471-07a139318957"><ellipse cx="24" cy="24" rx="24" ry="24" transform="matrix(1.0000000376316578,1.7453293176739686e-8,-1.7453293176739643e-8,1.000000037631662,-4.842807506122426e-7,-0.0000013220389227797114)" style="fill: rgb(238, 244, 237); fill-opacity: 1;"/></g><g id="shape-"/><g id="shape-fe02d49a-5da8-11ec-b471-07a139318957" width="317" height="316"><g id="shape-fe02d496-5da8-11ec-b471-07a139318957"><path d="M24.000000220044058,11.000000220044058C24.335544523841577,11.000000220044058,24.60759515675295,11.272029587132693,24.60759515675295,11.60759515675295L24.60759515675295,14.254316675740256C24.60759515675295,14.58988376434786,24.335544523841577,14.861911612449148,24.000000220044058,14.861911612449148C23.664455916246652,14.861911612449148,23.39240528333528,14.58988376434786,23.39240528333528,14.254316675740256L23.39240528333528,11.60759515675295C23.39240528333528,11.272029587132693,23.664455916246652,11.000000220044058,24.000000220044058,11.000000220044058ZZ" style="fill: rgb(71, 102, 67);"/></g><g id="shape-fe02d49d-5da8-11ec-b471-07a139318957"><path fill-rule="evenodd" clip-rule="evenodd" d="M23.95412680232255,28.891848321309908C27.208101485866905,28.891848321309908,29.8459749035884,26.253974903588414,29.8459749035884,23.00007616941116C29.8459749035884,19.746101485866802,27.208101485866905,17.108212878271843,23.95412680232255,17.108212878271843C20.700152118778306,17.108212878271843,18.062301485866897,19.746101485866802,18.062301485866897,23.00007616941116C18.062301485866897,26.253974903588414,20.700152118778306,28.891848321309908,23.95412680232255,28.891848321309908ZZM23.95412680232255,27.676658447892123C26.53693692890488,27.676658447892123,28.630785030170728,25.582886295993376,28.630785030170728,23.00007616941116C28.630785030170728,20.41719009346184,26.53693692890488,18.323402751689628,23.95412680232255,18.323402751689628C21.37131667574033,18.323402751689628,19.277491359284568,20.41719009346184,19.277491359284568,23.00007616941116C19.277491359284568,25.582886295993376,21.37131667574033,27.676658447892123,23.95412680232255,27.676658447892123ZZ" style="fill: rgb(71, 102, 67);"/></g><g id="shape-fe02d490-5da8-11ec-b471-07a139318957"><path d="M31.877848321309898,26.84668376434786C31.5872660428289,26.678835663082054,31.215645789664336,26.778405283335132,31.047873637765633,27.06906351118323C30.88010148586693,27.359645789664228,30.97967110612001,27.731266042828793,31.27025338460112,27.89903819472761L33.56240528333524,29.222379966879544C33.852987561816235,29.390152118778133,34.2246078149808,29.290582498525055,34.3923799668795,29.000000220044058C34.56015211877832,28.70941794156306,34.46058249852513,28.337797688398496,34.17000022004413,28.17002553649968L31.877848321309898,26.84668376434786ZZ" style="fill: rgb(71, 102, 67);"/></g><g id="shape-fe02d499-5da8-11ec-b471-07a139318957"><path d="M24.60759515675295,31.74564578966431C24.60759515675295,31.41010148586679,24.335544523841577,31.13805085295553,24.000000220044058,31.13805085295553C23.664455916246652,31.13805085295553,23.39240528333528,31.41010148586679,23.39240528333528,31.74564578966431L23.39240528333528,34.392405283335165C23.39240528333528,34.72794958713257,23.664455916246652,35.00000022004406,24.000000220044058,35.00000022004406C24.335544523841577,35.00000022004406,24.60759515675295,34.72794958713257,24.60759515675295,34.392405283335165L24.60759515675295,31.74564578966431ZZ" style="fill: rgb(71, 102, 67);"/></g><g id="shape-fe02d491-5da8-11ec-b471-07a139318957"><path d="M17.99988629599352,12.6076964225756C18.290498954221334,12.439909080803545,18.6620964225757,12.539478701056623,18.829876169411136,12.830091359284552L20.15324072637327,15.122212878271966C20.321012878271972,15.412825536499668,20.22144325801878,15.784423004854261,19.930860979537783,15.952202751689583C19.640202751689685,16.119990093461865,19.268635663082023,16.02042047320856,19.100855916246587,15.729807814980745L17.777491359284568,13.437686295993444C17.609711612449132,13.147073637765516,17.709281232702324,12.77547616941115,17.99988629599352,12.6076964225756ZZ" style="fill: rgb(71, 102, 67);"/></g><g id="shape-fe02d492-5da8-11ec-b471-07a139318957"><path d="M31.27025338460112,18.10096984029724C30.97967110612001,18.268757182069294,30.88010148586693,18.640354650423888,31.047873637765633,18.930936928904885C31.215645789664336,19.221595156752983,31.5872660428289,19.32116477700606,31.877848321309898,19.153392625107244L34.17000022004413,17.829997688398407C34.46058249852513,17.662210346626352,34.56015211877832,17.290612878271986,34.3923799668795,17.00000781498079C34.2246078149808,16.709395156752862,33.852987561816235,16.609825536499784,33.56240528333524,16.77761287827184L31.27025338460112,18.10096984029724ZZ" style="fill: rgb(71, 102, 67);"/></g><g id="shape-fe02d493-5da8-11ec-b471-07a139318957"><path d="M13.607696422575714,16.999962245360507C13.77547616941115,16.709357182069425,14.14707363776563,16.60978756181612,14.437686295993444,16.77756730865167L16.72980781498086,18.100931865613575C17.020420473208674,18.268711612449124,17.119990093461865,18.640278701056786,16.952202751689697,18.930936928904885C16.78442300485426,19.22151920738588,16.41282553649978,19.32108882763896,16.122212878271966,19.153316675740257L13.830091359284552,17.829952118778237C13.539478701056737,17.662172371942688,13.439909080803545,17.290574903588322,13.607696422575714,16.999962245360507ZZ" style="fill: rgb(71, 102, 67);"/></g><g id="shape-fe02d49b-5da8-11ec-b471-07a139318957"><path d="M12.000000220044058,23.000000220044058C12.000000220044058,22.664455916246652,12.272029587132693,22.392405283335165,12.60759515675295,22.392405283335165L15.254316675740256,22.392405283335165C15.58988376434786,22.392405283335165,15.861911612449148,22.664455916246652,15.861911612449148,23.000000220044058C15.861911612449148,23.335544523841463,15.58988376434786,23.60759515675295,15.254316675740256,23.60759515675295L12.60759515675295,23.60759515675295C12.272029587132693,23.60759515675295,12.000000220044058,23.335544523841463,12.000000220044058,23.000000220044058ZZ" style="fill: rgb(71, 102, 67);"/></g><g id="shape-fe02d494-5da8-11ec-b471-07a139318957"><path d="M32.74602553649993,22.392405283335165C32.41048123270241,22.392405283335165,32.138430599791036,22.664455916246652,32.138430599791036,23.000000220044058C32.138430599791036,23.335544523841463,32.41048123270241,23.60759515675295,32.74602553649993,23.60759515675295L35.392785030170785,23.60759515675295C35.728329333968304,23.60759515675295,36.00037996687968,23.335544523841463,36.00037996687968,23.000000220044058C36.00037996687968,22.664455916246652,35.728329333968304,22.392405283335165,35.392785030170785,22.392405283335165L32.74602553649993,22.392405283335165ZZ" style="fill: rgb(71, 102, 67);"/></g><g id="shape-fe02d497-5da8-11ec-b471-07a139318957"><path d="M28.89881034662642,30.270177435234018C28.731038194727603,29.979595156752907,28.359417941563038,29.880025536499716,28.06883566308204,30.047797688398532C27.778177435233943,30.21556984029712,27.67860781498075,30.587190093461686,27.84645591624667,30.877772371942797L29.16979768839849,33.16992427067703C29.337569840297306,33.460506549158026,29.70919009346187,33.560076169411104,29.999772371942868,33.3923040175124C30.290354650423865,33.2245318656137,30.389924270677056,32.852911612449134,30.22215211877824,32.56232933396814L28.89881034662642,30.270177435234018ZZ" style="fill: rgb(71, 102, 67);"/></g><g id="shape-fe02d498-5da8-11ec-b471-07a139318957"><path d="M18.00011414409471,33.3923040175124C17.709501485866895,33.2245318656137,17.609931865613703,32.852911612449134,17.77771920738587,32.56232933396814L19.101076169411158,30.270177435234018C19.268863511183326,29.979595156752907,19.64043059979099,29.880025536499716,19.931088827639087,30.047797688398532C20.221671106120084,30.21556984029712,20.321240726373162,30.587190093461686,20.15346857447446,30.877772371942797L18.83010401751244,33.16992427067703C18.662324270677004,33.460506549158026,18.290719207385905,33.560076169411104,18.00011414409471,33.3923040175124ZZ" style="fill: rgb(71, 102, 67);"/></g><g id="shape-fe02d495-5da8-11ec-b471-07a139318957"><path d="M13.607696422575714,29.000000220044058C13.439909080803545,28.70934199219596,13.539478701056737,28.337721739031394,13.830091359284552,28.169949587132578L16.122212878271966,26.846607814980757C16.41282553649978,26.678835663082054,16.78442300485426,26.778405283335132,16.952202751689697,27.06898756181613C17.119990093461865,27.359645789664228,17.020420473208674,27.73119009346169,16.72980781498086,27.898962245360508L14.437686295993444,29.222379966879544C14.14707363776563,29.390152118778133,13.77547616941115,29.290582498525055,13.607696422575714,29.000000220044058ZZ" style="fill: rgb(71, 102, 67);"/></g><g id="shape-fe02d49c-5da8-11ec-b471-07a139318957"><path d="M27.84668376434786,15.1222204732087C27.678835663082054,15.412825536499668,27.778405283335246,15.78443059979088,28.069063511183344,15.952210346626316C28.35964578966434,16.119990093461865,28.731266042828906,16.02042047320856,28.89903819472761,15.729815409917478L30.222379966879544,13.437686295993444C30.390152118778246,13.147081232702249,30.290582498525055,12.775483764347882,30.000000220044058,12.6076964225756C29.70941794156306,12.439916675740278,29.337797688398496,12.539486295993356,29.170025536499793,12.830091359284552L27.84668376434786,15.1222204732087ZZ" style="fill: rgb(71, 102, 67);"/></g></g></g></svg>