<svg xmlns:xlink="http://www.w3.org/1999/xlink" width="47.99998515734973" xmlns="http://www.w3.org/2000/svg" id="screenshot" version="1.1" viewBox="-0.0000016602883761152043 -0.33329413842216127 47.99998515734973 47.9999851573499" height="47.9999851573499" style="-webkit-print-color-adjust: exact;"><g id="shape-ed774efa-5ce8-11ec-b471-07a139318957"><g id="shape-ed774eff-5ce8-11ec-b471-07a139318957"><ellipse cx="24" cy="24" rx="24" ry="24" transform="matrix(1.0000000376316542,1.1249656330721165e-22,1.091878408569999e-22,1.0000000376316605,-9.031597016928572e-7,-9.031598509068317e-7)" style="fill: rgb(238, 244, 237); fill-opacity: 1;"/></g><g id="shape-2b1fea10-5d88-11ec-b471-07a139318957" width="450" height="358"><g id="shape-52bc72a0-5d88-11ec-b471-07a139318957"><path class="st0" d="M11.999990918386402,11.666698440252844L35.99999091838646,11.666698440252844L35.99999091838646,35.666698440252844L11.999990918386402,35.666698440252844Z" style="fill: rgb(177, 178, 181); fill-opacity: 0;"/></g><g id="shape-2b1fea11-5d88-11ec-b471-07a139318957"><path fill-rule="evenodd" clip-rule="evenodd" d="M15.204085983638493,21.11559011138843C15.204085983428513,18.974704028096426,16.90826927974763,17.239172004577313,19.010484769293384,17.239172004805482C20.667537040813727,17.239172004984766,22.078002991083224,18.31794934571417,22.600455624606298,19.823450743192097L17.497685252020005,19.823450742638556C17.174268235166664,19.823450742603654,16.91208543881004,20.090456433878217,16.912085438842325,20.41982275903581L16.912085439227837,24.350461021861975C15.882435047543424,23.65628399458967,15.204085983770938,22.46612424033208,15.204085983638493,21.11559011138843ZL15.204085983638493,21.11559011138843ZM16.912085439361476,25.71346926548324C15.212318541384718,24.907571880388105,14.032886357365953,23.152498733483526,14.032886357166149,21.11559011126144C14.032886356891595,18.31597137765391,16.26143524592362,16.04642797158556,19.0104847691764,16.046427971883304C21.3213104321905,16.046427972133984,23.263549812914334,17.64959522699496,23.824798434129775,19.823450743324656L27.35528210816159,19.823450743707667C27.67867960502133,19.82345074374257,27.940881921423966,20.090456435074316,27.940881921456253,20.419822760232023L27.940881921817947,24.107787310026083L30.176409208647613,22.07609694319035C30.056019647009066,21.729008429597002,29.990481267874543,21.35553045428128,29.9904812678364,20.966497108876638C29.99048126772965,19.877949206764015,30.50400350385837,18.911369321606912,31.295344051418738,18.304774494916728C31.52890077691353,18.125753555133997,31.856299872499164,18.14953388932588,32.06252860674789,18.360495520404356L35.81363701079272,22.1976574398235C36.01986574504127,22.408624040668883,36.041776938086,22.742145090877102,35.864925794511976,22.97920296740085C35.268785184715966,23.778341469394377,34.32372468617251,24.296240867920005,33.26008022539793,24.2962408678045C32.87651234772841,24.296240867763004,32.50831646514945,24.228950225199014,32.166374974191854,24.10540182241857L27.940881922417873,30.225023571205952L27.94088192251877,31.253914392604884C27.94088192265872,32.68118172100003,26.80476948510966,33.83819313047934,25.40328273208229,33.83819313032711L19.449684630848253,33.838193129681486C18.048207637817825,33.838193129529486,16.912085440044848,32.681181719804385,16.912085439904843,31.253914391409126L16.912085439361476,25.71346926548324ZL16.912085439361476,25.71346926548324ZM26.769682295927055,30.036321525537232L26.769682295476173,25.439287231984395L26.7696822950424,21.016194776565726L23.349681785774635,21.01619477619488L18.08328506537316,21.01619477562383L18.083285065794826,25.31598731663894L18.083285066377186,31.253914391536227C18.08328506645256,32.02243913008226,18.695041671407523,32.64544909667802,19.44968463073127,32.64544909675976L25.403282731965305,32.64544909740539C26.15792569128905,32.6454490974869,26.7696822961218,32.02243913102404,26.769682296046426,31.253914392478123L26.769682295927055,30.036321525537232ZL26.769682295927055,30.036321525537232ZM27.940881922214487,28.151438069971505L31.147236099164672,23.50773766647785C31.138256902027592,23.499935132595056,31.129277704890455,23.492132598712033,31.12034730773803,23.484280367160977C30.99683454711885,23.37529338113916,30.88142258391531,23.257062628863537,30.775136217800537,23.130582063694078L27.94088192197472,25.706412197817713L27.940881922214487,28.151438069971505ZL27.940881922214487,28.151438069971505ZM31.845466276385423,22.544895045977455C32.21854215743525,22.89188416426248,32.71503319911153,23.103496834823545,33.260080225280944,23.10349683488289C33.76047526569113,23.10349683493712,34.21992711914197,22.925479788073403,34.580900603988425,22.627244082213792L31.6352359431462,19.613989982689986C31.338873637700544,19.98271189113541,31.161680894258268,20.453482991143574,31.161680894308574,20.966497109003512C31.161680894362803,21.519731549607172,31.36810482857794,22.023864694211284,31.706825520587984,22.403356087389056C31.750843106554328,22.45270587175594,31.797105491804587,22.499968354065572,31.845466276385423,22.544895045977455ZL31.845466276385423,22.544895045977455Z" style="fill: rgb(71, 102, 67);"/></g></g></g></svg>