<svg xmlns:xlink="http://www.w3.org/1999/xlink" width="47.99998348183419" xmlns="http://www.w3.org/2000/svg" id="screenshot" version="1.1" viewBox="-8.225305805353855e-7 0.224932831764022 47.99998348183419 47.99998348183442" height="47.99998348183442" style="-webkit-print-color-adjust: exact;"><g id="shape-1faabb13-5ced-11ec-b471-07a139318957"><g id="shape-1faabb14-5ced-11ec-b471-07a139318957"><ellipse cx="24" cy="24" rx="24" ry="24" transform="matrix(1.0000000376316556,3.3087224502121107e-23,2.6469779601696877e-23,1.0000000376316571,-9.031597336672803e-7,-9.031597727471308e-7)" style="fill: rgb(238, 244, 237); fill-opacity: 1;"/></g><g id="shape-94323910-5d7c-11ec-b471-07a139318957" width="512" height="512"><g id="shape-9432d550-5d7c-11ec-b471-07a139318957"><path fill-rule="evenodd" clip-rule="evenodd" d="M22.960620839646253,21.201302525437086C22.960620839646253,20.888215911263842,22.706778319961245,20.634373391578947,22.393691705788,20.634373391578947C22.080605091614757,20.634373391578947,21.82676257192975,20.888215911263842,21.82676257192975,21.201302525437086L21.82676257192975,27.777680478193133C20.53288855618166,28.040310399452892,19.559046036496625,29.184278903389895,19.559046036496625,30.55563323409865C19.559046036496625,32.12116079315365,20.828164146732888,33.390278903390026,22.393691705788,33.390278903390026C23.959219264843114,33.390278903390026,25.228337375079263,32.12116079315365,25.228337375079263,30.55563323409865C25.228337375079263,29.184278903389895,24.254494855394228,28.040310399452892,22.960620839646253,27.777680478193133L22.960620839646253,21.201302525437086ZZM24.09447910736276,30.55563323409865C24.09447910736276,31.494940320712658,23.332998792402122,32.256420635673294,22.393691705788,32.256420635673294C21.454384619173766,32.256420635673294,20.69290430421313,31.494940320712658,20.69290430421313,30.55563323409865C20.69290430421313,29.616326147484415,21.454384619173766,28.85484583252378,22.393691705788,28.85484583252378C23.332998792402122,28.85484583252378,24.09447910736276,29.616326147484415,24.09447910736276,30.55563323409865ZZ" style="fill: rgb(71, 102, 67);"/></g><g id="shape-9433e6c0-5d7c-11ec-b471-07a139318957"><path fill-rule="evenodd" clip-rule="evenodd" d="M25.03865233570923,26.87078284039785C24.742479107362783,26.657711974256017,24.566920052244654,26.315145045122108,24.566920052244654,25.950326147484475L24.566920052244654,15.532011186854561C24.566920052244654,14.331770241972663,23.59392792626045,13.35878284039768,22.393691705788,13.35878284039768C21.193455485315553,13.35878284039768,20.220463359331234,14.331770241972663,20.220463359331234,15.532011186854561L20.220463359331234,25.950326147484475C20.220463359331234,26.315145045122108,20.04490430421322,26.657711974256017,19.748731075866772,26.87078284039785C18.60154997350446,27.695995438823047,17.858258634921867,29.03900331283876,17.858258634921867,30.55563323409865C17.858258634921867,33.060467879767884,19.888857060118653,35.09106630496467,22.393691705788,35.09106630496467C24.898526351457235,35.09106630496467,26.929124776654135,33.060467879767884,26.929124776654135,30.55563323409865C26.929124776654135,29.03900331283876,26.185833438071427,27.695995438823047,25.03865233570923,26.87078284039785ZZM19.08660509161473,25.950326147484475C17.656006666417852,26.97949150181512,16.724400367205362,28.65873559630336,16.724400367205362,30.55563323409865C16.724400367205362,33.686688352208876,19.262636587677775,36.224924572681175,22.393691705788,36.224924572681175C25.524746823898226,36.224924572681175,28.06298304437064,33.686688352208876,28.06298304437064,30.55563323409865C28.06298304437064,28.65873559630336,27.131376745158036,26.97949150181512,25.70077831996116,25.950326147484475L25.70077831996116,15.532011186854561C25.70077831996116,13.705559218350572,24.220148398701326,12.224924572681175,22.393691705788,12.224924572681175C20.567235012874562,12.224924572681175,19.08660509161473,13.705559218350572,19.08660509161473,15.532011186854561L19.08660509161473,25.950326147484475ZZ" style="fill: rgb(71, 102, 67);"/></g><g id="shape-94345bf0-5d7c-11ec-b471-07a139318957"><path d="M27.212589343583204,15.650121423075007C27.212589343583204,15.389201738035581,27.424101154606888,15.177680478192997,27.6850302884651,15.177680478192997L30.80314052468566,15.177680478192997C31.064069658543872,15.177680478192997,31.275581469567555,15.389201738035581,31.275581469567555,15.650121423075007C31.275581469567555,15.911041108114205,31.064069658543872,16.12256236795679,30.80314052468566,16.12256236795679L27.6850302884651,16.12256236795679C27.424101154606888,16.12256236795679,27.212589343583204,15.911041108114205,27.212589343583204,15.650121423075007ZZ" style="fill: rgb(71, 102, 67);"/></g><g id="shape-9434aa10-5d7c-11ec-b471-07a139318957"><path d="M27.212589343583204,20.161932446696937C27.212589343583204,19.90100331283884,27.424101154606888,19.689491501815155,27.6850302884651,19.689491501815155L29.76377044594551,19.689491501815155C30.024699579803723,19.689491501815155,30.236211390827407,19.90100331283884,30.236211390827407,20.161932446696937C30.236211390827407,20.422861580555264,30.024699579803723,20.634373391578947,29.76377044594551,20.634373391578947L27.6850302884651,20.634373391578947C27.424101154606888,20.634373391578947,27.212589343583204,20.422861580555264,27.212589343583204,20.161932446696937ZZ" style="fill: rgb(71, 102, 67);"/></g><g id="shape-94351f40-5d7c-11ec-b471-07a139318957"><path d="M27.6850302884651,17.421774966382145C27.424101154606888,17.421774966382145,27.212589343583204,17.6332867774056,27.212589343583204,17.894215911263927C27.212589343583204,18.155145045122254,27.424101154606888,18.36665685614571,27.6850302884651,18.36665685614571L29.76377044594551,18.36665685614571C30.024699579803723,18.36665685614571,30.236211390827407,18.155145045122254,30.236211390827407,17.894215911263927C30.236211390827407,17.6332867774056,30.024699579803723,17.421774966382145,29.76377044594551,17.421774966382145L27.6850302884651,17.421774966382145ZZ" style="fill: rgb(71, 102, 67);"/></g><g id="shape-9435bb80-5d7c-11ec-b471-07a139318957"><path d="M27.212589343583204,22.429648982129947C27.212589343583204,22.16871984827185,27.424101154606888,21.957208037248165,27.6850302884651,21.957208037248165L29.76377044594551,21.957208037248165C30.024699579803723,21.957208037248165,30.236211390827407,22.16871984827185,30.236211390827407,22.429648982129947C30.236211390827407,22.690578115988274,30.024699579803723,22.902089927011957,29.76377044594551,22.902089927011957L27.6850302884651,22.902089927011957C27.424101154606888,22.902089927011957,27.212589343583204,22.690578115988274,27.212589343583204,22.429648982129947ZZ" style="fill: rgb(71, 102, 67);"/></g><g id="shape-9436a5e0-5d7c-11ec-b471-07a139318957"><path d="M27.6850302884651,24.272168667169353C27.424101154606888,24.272168667169353,27.212589343583204,24.483680478193037,27.212589343583204,24.744609612051363C27.212589343583204,25.00553874590969,27.424101154606888,25.217050556933145,27.6850302884651,25.217050556933145L30.80314052468566,25.217050556933145C31.064069658543872,25.217050556933145,31.275581469567555,25.00553874590969,31.275581469567555,24.744609612051363C31.275581469567555,24.483680478193037,31.064069658543872,24.272168667169353,30.80314052468566,24.272168667169353L27.6850302884651,24.272168667169353ZZ" style="fill: rgb(71, 102, 67);"/></g></g></g></svg>