<svg xmlns:xlink="http://www.w3.org/1999/xlink" width="73.62669271182097" xmlns="http://www.w3.org/2000/svg" id="screenshot" version="1.1" viewBox="0.18665841736810762 0.21013954549164282 73.62669271182097 88.57972056637607" height="88.57972056637607" style="-webkit-print-color-adjust: exact;"><g id="shape-280de6e0-5c0e-11ec-ab3d-3b38539fb6e4" width="73.626686mm" height="88.579712mm"><g id="shape-280e8320-5c0e-11ec-ab3d-3b38539fb6e4"><path color="#000" overflow="visible" d="M31.169608864266138,21.506543322169705C31.169608864266138,21.506543322169705,25.189258314609106,14.93111840500967,21.464956903196025,19.1207954355599C17.74062903345009,23.31073704943981,10.609420373292096,31.785076526009902,8.472169150218065,32.90876192851954C6.334944385477115,34.03244733102963,2.4836429756639973,34.0133973312694,2.3143625611301104,28.090699489219674C2.14508214659611,22.168001647169945,5.044121693406055,11.76987677816976,11.20192828249401,7.0280143379098945C17.359734871582077,2.2858873143194387,26.014546637545095,1.9051519024500294,28.469192023287064,5.314043526170167C30.923863867362115,8.72293514988985,35.15603298070994,19.177945434840126,35.15603298070994,19.177945434840126L43.85315162114,17.768774619259943C43.85315162114,17.768774619259943,50.28604549842896,10.246405964030032,55.406976475579995,12.493512185720078C60.52790745273103,14.74088299074026,70.02914774969713,20.96811624562031,70.96021648796705,26.643428674119946C71.89131168457004,32.31847651929036,72.94932750457394,49.953220047120226,66.19901300628396,43.02113680111995C59.44869850799398,36.089053555119676,52.27518297336894,27.309914082390037,52.27518297336894,27.309914082390037C52.27518297336894,27.309914082390037,57.90395519412198,42.64040138924963,59.194777886192924,47.363213829749725C60.485600578263984,52.08602627024982,63.15185971133997,72.34887601496973,63.23649991860691,74.65339681927014C63.32114012587385,76.95765304023996,53.587145873506984,77.24340303664019,53.587145873506984,77.24340303664019C53.587145873506984,77.24340303664019,50.269403206972015,85.82463417853057,47.916040319953936,86.80332791619992C45.56267743293597,87.78202165387017,41.46197977626491,77.05290303903973,41.46197977626491,77.05290303903973L28.765445977887907,76.53855304551996C28.765445977887907,76.53855304551996,25.791397057023005,82.75255713390004,23.919602288937995,83.98498628504001C22.047833979185953,85.21715085284984,16.428666133311935,79.52860925784978,17.931076114383927,73.07277600584973C19.433512553788887,66.61667817052,25.506678935609898,61.798615731219684,25.506678935609898,61.798615731219684C25.506678935609898,61.798615731219684,16.597946547845936,58.542124105579546,15.688044475975857,50.69590545442986C14.77811594577281,42.849686803279724,25.024766858347903,21.473734989249692,31.169608864266138,21.506543322169705ZZ" style="fill: rgb(255, 255, 255);"/></g><g id="shape-281009c0-5c0e-11ec-ab3d-3b38539fb6e4"><path d="M44.174144117096034,87.9701404014994C39.492871259406,86.08419042525918,37.39983191077499,72.79522809267962,41.08944644762505,69.10508438916975C42.621913094985075,67.57314690846931,43.95004203658607,68.08220523538955,43.156292046586145,71.91284268712968C42.59960872026613,74.59862806995932,42.67818996927622,76.05224888497958,43.53755662511605,79.00605718109944C45.696027431256084,86.42021125435929,47.996314902276026,86.99673833042914,49.73039404709607,80.55810299487928C51.12527736285608,75.3778259768095,52.90698150707601,72.1358864343191,55.02867523034604,70.91800936632933C57.04797520490615,69.75807604760928,58.53289622786508,71.16354269656938,57.33221707632504,72.82644892561927C54.65754419335508,76.53008637895925,54.60888731896807,77.86570302879943,53.9220289942881,81.17458215377917C53.413499834028016,83.62462378957923,52.90581734042405,86.13393209129924,51.64349027299397,87.39678832538937C49.58847154888406,89.45154246616892,46.39823158907609,88.86575497354931,44.174144117096034,87.9701404014994ZZM21.79401919071711,86.00984250952968C19.731327550037122,85.58783209818,18.418226941580087,84.22443419868966,16.989212376250066,81.00101548929968C14.807722820400045,76.08082388461969,17.288509039145993,67.63135524106917,21.62688190115614,63.98063445372952L23.775298540756012,62.1724719765092L20.938303784831078,61.55890323423944C13.3294163806911,56.336292883369765,12.491454516248155,53.9785908297398,12.939394093938063,46.09294926241944C13.454273254117993,37.13971395854958,20.013452754816058,26.441022426669747,26.835204752206096,22.224357896459765C29.03336305784603,20.86625166356987,28.27990910900519,21.123162076999847,27.153842456525012,20.269087087759885C25.847329972984994,19.27795793358007,24.39910665789705,19.657635012129845,22.641215013377064,20.332057920299917C22.037965020976912,20.56356833404959,19.91415463106705,23.219191217259663,17.322825497047006,26.71222033991978C12.211075561446933,33.60355775309961,9.014882476713979,36.09408063838998,5.852847099884002,35.80727230866967C2.6013825575139435,35.51226189571969,-0.09117615856393968,31.16595153380956,0.20965508764606966,23.987541207579284C0.4035946685361296,19.358655849229194,0.8263988298760978,17.42587462357949,2.310182144516034,14.393485078449316C4.324455035805954,10.276568463649596,10.434742458826008,3.5503310483894666,14.930806985516028,1.193422744749455C18.525171523565973,-0.6909397315104115,25.376186437253978,0.4118435879294111,28.04927182024403,2.163385232529322C30.616259287904086,3.8456060446691254,33.723367165426,9.66485180468942,35.020090065755994,14.290032996419427C36.05646296936595,17.986262116519242,36.156210884775874,18.10188503172901,37.49976503451592,17.160762126919394C38.2697025248159,16.62180588370927,40.08368583529591,16.18048088926969,41.53122123372589,16.18048088926969C43.483317042465956,16.18048088926969,44.223832866469934,13.869080918389386,45.91240367852993,12.386620520399333C48.9532598902199,9.71697472069934,53.100339004639864,8.613926817929382,56.39149104650994,9.599764305509666C59.81414100338998,10.625289292589855,68.18878548121597,16.697476716089454,70.23242712213585,19.79363084374961C73.6227979127558,24.929193279049628,74.38109373653583,33.7847973341494,73.44076458171594,40.05674517179966C72.82402083948591,44.16837011999985,71.17169794363599,46.12946176195953,68.32478131283597,46.12946176195953C65.656723013116,46.12946176195953,63.57312928936608,43.98183887234916,58.632829351606006,36.139324387819556C56.83313354094605,33.28182442381956,55.20594606144596,31.099011951319767,55.01676898049607,31.287924448939407C54.827591899546064,31.477101529889637,55.43428147523605,33.24742859091964,56.36482104684603,35.221749399379746C60.333835580176014,43.642907626619376,63.62948553865601,57.366315787059534,64.615852192896,69.57842396653984C65.01510843786605,74.52480932088963,64.91985843906593,75.48418847546998,63.948573034635956,76.29010929864978C62.29095847218605,77.66594261465013,61.592987647646055,76.18612804996008,61.56520639799601,71.23762602897011C61.50937931536612,61.25939490467988,57.967666859986025,48.37445131700986,53.38667108436607,36.44756396726996C50.92683986535599,30.04411821461042,48.549399895308056,25.68854743615009,45.86202701249806,25.68854743615009C43.64323120711799,25.68854743615009,43.69604203978599,23.903403708640212,45.40207535162597,22.70828080703029C47.61213990711599,21.160468326529895,50.522556537115975,22.407978727479872,54.982637730925944,26.81408492197022C57.14798770364598,28.95377031168016,60.648160576216014,33.364903589439905,62.760064716275906,36.616103548480055C68.11867089876603,44.863959694570326,70.34963753732598,44.46629094958041,70.34963753732598,35.26275981553033C70.34963753732598,26.145482847059952,67.20532924360589,20.42333916915038,59.46811892441599,15.458432981700184C56.594214793955985,13.614287171600495,55.663675222346,13.354466341540387,52.887137757325945,13.621430921510523C49.532485716255906,13.94369341745039,45.35392118556592,16.370451720210326,45.35392118556592,17.996580866390445C45.35392118556592,18.61200169197025,44.30220244881593,18.882935021890603,41.91169206226584,18.882935021890603C39.92599417061581,18.882935021890603,37.671479615685826,19.354157932620524,36.58298379606583,19.997095424520353C33.80115466444579,21.640157903820068,32.75261092765595,20.876570413440618,32.37372759909579,16.93136837981035C31.71253385742591,10.05537679977067,26.90187975136587,4.020760209130344,22.08064231210585,4.020760209130344C16.318017384705854,4.020760209130344,7.115809167305883,11.82967261074998,5.174296691765903,18.368320445040695C3.4510654634758566,24.170103705280667,4.088446705445904,32.39361818501072,6.260940428075855,32.39361818501072C7.93681124029581,32.39361818501072,11.58118202771584,28.849524479660317,15.165492399225855,23.734334960770752C18.595815272675964,18.838485022450527,21.826113148645845,16.180480889271053,24.345740200235923,16.180480889271053C25.52075476876587,16.180480889271053,25.222304772525945,15.298360067050794,23.371544379176044,13.302608008861057C21.10459440773593,10.857064289670575,18.591581939396065,10.92135803886083,15.009123651195978,13.516655922830864C10.319648710275942,16.913641296700803,6.591140423915931,26.462189093070606,9.009961226775886,28.88100989593056C9.640463302165927,29.510982804660557,9.57087788637591,29.6914286357204,8.695900814065908,29.6914286357204C5.966723765115944,29.6914286357204,5.43967377175602,24.849818280050272,7.577242494825896,19.41448293186056C10.362511209735999,12.330264271110423,14.52969865723594,8.749393482890696,20.118492336825966,8.637474734300554C23.141356882076025,8.576620568400699,23.545375626986015,8.779291399180579,26.161311010695954,11.668805946110638C27.729496407606007,13.400503840960369,29.450346385925968,16.250330888390522,30.067090128155996,18.136280864630294L31.169608864266024,21.50654332217016L27.53793807668592,24.941628695560098C19.772946507845973,32.28513901971007,14.833175736745943,46.54644509004072,17.96002153068605,52.59349709719061C18.498713190566036,53.634103334080805,20.09415067046598,55.5002095605704,21.505702736015905,56.73951787829026C23.632423542556012,58.60694702143053,24.11052561986594,58.79506576906067,24.294940200875885,57.837538697790364C24.417442282666002,57.20174495580011,23.855731873076024,55.31447206291011,23.046900633265864,53.64389291729037C21.12708399078599,49.67778880059029,22.059925437366815,45.945840930940335,24.025779579266896,49.74128879979014C25.612221225946996,52.80410542787001,26.45605684031591,53.97515124645031,28.699988062045918,51.309209613369944C30.349929707925867,49.347853388080125,32.518983847265986,48.57923881443037,32.518983847265986,49.95586588042022C32.518983847265986,50.326282542420245,31.45509427733589,51.80715544042994,30.154667210385924,53.24648875563014C28.367671399565893,55.22451373071033,27.790085990175953,56.46223454845028,27.790085990175953,58.31537619177004C27.790085990175953,60.75113032775005,27.808606823276023,60.76647616088974,30.66134428733585,60.75165949441032C34.039544244775925,60.73843032791035,38.35966085701591,58.898253267760424,40.35197333191593,56.633684546290056C41.130377488775935,55.74865330744012,42.750156635035864,52.54190334784005,43.951629536565974,49.50792630272997C45.15310243809597,46.47368467428976,46.720229501685935,43.46246179555999,47.43407532602589,42.816613887029575C48.685819060255994,41.683668067969734,49.34886488523591,42.51154930753944,49.34886488523591,44.401732617059565C49.34886488523591,46.80123883682961,46.620772627939004,56.031757470539446,44.929820565908926,58.80432618560951C44.249576824478936,59.91901575489953,41.429938735002,61.69516364918934,39.41725334369198,62.79106780204927C36.38883254851203,64.44048028126952,34.667294653533986,64.25818236689918,30.29373220863397,64.40052819843947C23.617501042743925,64.61907402901932,24.248188326465083,64.97176360790934,22.989565425655087,67.4056656605793C21.597857109855,70.0964781266797,19.242880264524047,74.73594681822931,20.050388587683983,77.05898845562967C21.80034273230399,82.09665505882992,23.269415213796037,82.90628004862981,25.399575603625976,78.01995511018947C28.435669315376003,70.94790728261967,29.289744304615965,70.26845729117929,30.588319288256002,69.8559718797095C32.52427551386597,69.24134480411965,33.678705499321836,70.24014687486931,32.47590968114196,72.5653051789094C31.896736771771998,73.68555099812954,30.692379911944954,76.49965929600955,30.09177575284491,78.29326969007923C27.95076744648486,84.69089460947941,25.075646232706845,86.68188416772944,21.79401919071711,86.00984250952968ZZM25.79713851528402,37.66808686855927C24.66019748794099,36.31394938561914,26.490743714879045,32.70556193107939,28.231913692943067,32.96405984448927C30.640495120932087,33.32151192331946,29.60219075901307,37.66411811860905,28.557562855506944,38.22979727814925C27.66681661672908,38.712132688739416,26.365384133124962,38.3448910266992,25.79713851528402,37.66808686855927ZZM34.646815903792,38.439082692179795C34.060234661181994,37.48949312080947,35.37923547789808,33.76019108445996,36.31326754946406,33.617845252919665C38.34537335719608,33.30801817348981,39.233817721003106,35.612803561119904,38.402999606470075,37.67470145180994C37.673040657333104,39.486568095649886,35.28684297906216,39.47413267913987,34.646815903792,38.439082692179795ZZ" style="fill: rgb(3, 3, 3);"/></g></g></svg>