<svg xmlns:xlink="http://www.w3.org/1999/xlink" width="22.441041006663568" xmlns="http://www.w3.org/2000/svg" id="screenshot" version="1.1" viewBox="865.0070389780981 3286 22.441041006663568 23.002073772162476" height="23.002073772162476" style="-webkit-print-color-adjust: exact;"><g id="shape-d8a44770-5cdf-11ec-8442-c1caae776c6e"><path d="M876.295989435103,3308.8606486799617C876.2278349574086,3308.3414727213512,876.0581452501343,3306.5576269958106,875.9189478929808,3304.8929625278993C875.5485161866443,3300.417886329973,875.5821172512,3300.7533396823924,875.5231212911807,3299.9972677313917C873.5802135765541,3300.7344096289535,871.3413716441022,3301.7182063224172,869.6015689422172,3301.2697779213454C868.2022506243304,3300.89523358161,866.9927999213778,3300.491662830477,866.0315609319445,3299.399368240284C865.355622920503,3298.6239314494464,865.1456760023276,3298.071408500988,865.155380046852,3297.32649807421C865.185254379742,3295.847596033697,867.5392942676798,3293.1870453873526,870.6571933001075,3291.6403993626136C871.7359394613622,3291.1145550704864,871.5776938085835,3290.9289410453857,870.3510277976198,3291.290870763846C869.8883573166786,3291.4252145716646,869.4695368048192,3291.4845565317773,869.4166214451645,3291.429873785695C869.1520500252424,3291.16727944382,870.257365029329,3290.253074404022,870.9988027753819,3290.1115649252815C871.7616733393079,3289.970334654633,871.5278812013643,3289.8161281001394,870.6586846783056,3289.8803927917297C869.9505579879192,3289.9359438125034,869.7901296941682,3289.912259476071,869.8457846554993,3289.7510263782374C869.9682022649296,3289.407088357222,871.0130073562593,3289.021180356522,872.0105079963705,3288.95860183948C872.7936188328654,3288.9148101148094,872.97667834812,3288.8523968656946,872.9792097378271,3288.6580800957777C872.985819861598,3288.150667943342,873.4606528192113,3287.0770812481837,873.9174250758765,3286.575548156306C874.2982291410835,3286.137793925639,874.4385635573589,3286.0640342530933,874.7053120479112,3286.1538942554785C875.121600882078,3286.288891171855,875.3812498673624,3286.92934578403,875.4949389339206,3288.0753898507264C875.5802394754458,3288.9295247362315,875.6012561573659,3288.972979985748,876.0813484933138,3289.1411923329324C876.3480970798607,3289.2310449664596,876.783917068467,3289.5066821339556,877.0490567817668,3289.736884884511L877.5256331066862,3290.174996372072L877.6693428052326,3289.8421403041134C878.2441028795281,3288.4999104285225,878.4526004131912,3288.1247095274825,879.0516761367829,3287.3982667598516C879.7702832810453,3286.5438220158385,880.3313339182916,3286.2595841647594,880.6483989915744,3286.609232643321C880.7540834117854,3286.718596229629,880.9412126374318,3287.16373426053,881.0750774667023,3287.586598733171C881.3627607539379,3288.540537588106,881.2650018762026,3289.4570783538693,880.7187653893604,3291.069617383722L880.3291743217426,3292.187503368599L880.9621002063494,3292.962394575112C881.7532830764085,3293.9444943706526,882.0474299963264,3294.3910339050108,882.6122660090895,3295.46735992409C883.6159400002971,3297.4132236147484,885.3056602823884,3300.9984913907856,885.5324203022809,3301.692503594892C885.676824332952,3302.1263025712205,885.844489695381,3302.420018759682,885.962547401219,3302.4107595045416C886.0806726862644,3302.390696551508,886.6500850703011,3302.2901570190375,887.2412120177097,3302.1682690981575M886.6511284391468,3303.024402875505C884.9862512026557,3303.2942536645673,885.0835792544282,3303.230738320803,885.2349391842499,3303.956152532517C885.4170783960506,3304.789954531612,885.2825690545016,3305.2309025352893,884.8539126970397,3305.225318373467C884.5860390484005,3305.2218287487917,884.4699502012237,3305.079952738441,884.2935740552831,3304.634947419192C884.1691231733312,3304.3093951968062,884.0666002530802,3303.9517296382633,884.0680064847003,3303.843783246055C884.0695536370667,3303.7250193711693,884.0064477287524,3303.627022409008,883.9315425905198,3303.6260466100816C883.7601531970836,3303.6238138982812,883.7600123723321,3303.634624012103,883.9076484631372,3304.6515069627635C884.0454367996956,3305.5819134407066,883.9755859931753,3306.012906551337,883.6417261057883,3306.1381385533814C883.2431402961561,3306.284114408651,883.02389851447,3305.8385506732184,882.8694533035882,3304.5300175487423L882.7145862904168,3303.2538631837288L882.5933583489308,3304.332048967068C882.4364284988374,3305.679721971042,882.3691034156866,3305.905601029792,882.1012297670477,3305.902111405117C881.7476248469158,3305.8975049480778,881.6380053947531,3305.2590195302546,881.6945951575583,3303.391736541355C881.7288204663623,3302.3987950286446,881.7074695337268,3301.57789221752,881.6538509142692,3301.577193720828C881.5896256101995,3301.576357049483,881.4700883312019,3301.693576481617,881.3932085719767,3301.8329460350765C881.2510515961385,3302.057842878971,881.2187926450052,3302.057422637441,880.9552114167454,3301.730050575927C880.7335730197872,3301.4572256900565,880.6730718427183,3301.1648981731923,880.6736376351058,3300.2902800931247C880.6709798226713,3299.6855797028643,880.6327495937082,3299.317961855488,880.5986004078098,3299.4794898520568C880.4748496203141,3299.931382587066,880.2274919394246,3299.9929361053346,879.8781005277915,3299.6536563454215C879.581838258124,3299.3582649084124,879.562166278933,3299.2284347711143,879.5842467744303,3297.5334722961024L879.5972674496963,3295.719629878125L879.2243980466337,3296.362634429467C878.2675244215164,3297.7601518351094,877.5608578027005,3298.4674163018517,876.303226351548,3299.4541120364315L876.4498165300547,3301.1746718988766C876.4933091107081,3301.9526743195242,876.6180325224955,3303.0772603456603,876.7282144097093,3303.6725716279134C876.8275702596575,3304.2677345078705,876.9895337087459,3305.8247161010217,877.0796802740182,3307.1324263389392M872.0456089805535,3300.2426796367567C872.7138293735022,3299.9706351080977,873.690187292946,3299.06555470593,873.9442281511605,3298.4965973570115C874.0548409603317,3298.23887584841,874.146051339181,3297.8081683617997,874.1495674462037,3297.5382618525646C874.156740101021,3296.987668195703,874.287519745226,3296.8274063867234,874.5851207633013,3297.02564776056C874.7127331452147,3297.1028980107094,874.8040812794645,3297.4928022482045,874.8283913584197,3298.0977847053423L874.8803078867194,3299.0378623581696L875.312345096794,3298.7951547753996C876.0033990648892,3298.4046310429458,877.5699812916525,3296.6326141184677,878.04284529461,3295.710170057659C878.768838971995,3294.294329864747,878.5617594749907,3292.909537979691,877.4705905922426,3291.9235081172296C876.9196659938,3291.430442044352,876.6419507372264,3291.3512363846353,874.4794806858857,3291.1395056989045L873.2271038386936,3291.015211372114L870.902078338814,3292.5829908411897C867.4529884681115,3294.88117119102,865.8552725442971,3296.5663901274015,866.0769695927851,3297.6490506090563C866.1775234623842,3298.1578661708054,866.9807250110082,3299.042947661899,867.8310057998717,3299.593906897442C868.9043987965211,3300.2989409287557,871.0760016256526,3300.629567248097,872.0456089805535,3300.2426796367567ZL872.0456089805535,3300.2426796367567ZM868.6550896323511,3298.8703879694463C868.486017942307,3298.68462554205,868.568309517667,3298.124213260936,868.7963440640959,3297.9004351552635C868.926628756463,3297.7725511528174,869.1850882657934,3297.678743264952,869.3673037924896,3297.681117010191C869.6566102590018,3297.6848858429576,869.7201378736108,3297.7505114145138,869.7156375292476,3298.0959708187793C869.7087461399537,3298.6249737234284,868.9512111732623,3299.1765821514205,868.6550896323511,3298.8703879694463ZL868.6550896323511,3298.8703879694463ZM866.7266342369519,3297.9814448590687C866.3998006092893,3297.5560886672515,866.3897509813755,3297.501956968494,866.5648756424966,3297.2343081364183C866.7508097258524,3296.9343863853164,867.199008762417,3297.1021906244714,867.407497656387,3297.547606910536C867.5532349611195,3297.8734438040137,867.5515473679814,3298.002988317291,867.4209140228736,3298.1632520321273C867.1706026700123,3298.4515379240634,867.0531074952205,3298.417615674778,866.7266342369519,3297.9814448590687ZL866.7266342369519,3297.9814448590687ZM873.9675951702231,3294.231783440616C873.9262764948529,3294.112475887262,873.9080783264902,3293.863895659864,873.9427283225542,3293.6807724010105C873.9780024745501,3293.432888764447,874.0938118065228,3293.2817182712906,874.350859321902,3293.2850668625274C874.6724247395476,3293.2892559368233,874.7071457508614,3293.420800362048,874.7013797116447,3293.863418151272C874.696035282727,3294.273671918749,874.6303979847055,3294.3699917265058,874.3725682976432,3294.409836518624C874.1794649168063,3294.4289079820883,874.008986899147,3294.351099315756,873.9675951702231,3294.231783440616ZL873.9675951702231,3294.231783440616ZM872.0751814084932,3293.8616126908914C871.8975395676997,3293.5137657566006,872.1279650630645,3293.1064515194016,872.5137557847798,3293.1114772650426C872.749516781384,3293.114548554045,872.7913979878,3293.1906746029726,872.7434693806491,3293.57876446434C872.682891888685,3294.1178652013314,872.2947777012465,3294.2855792581813,872.0751814084932,3293.8616126908914ZL872.0751814084932,3293.8616126908914ZM879.6880974916894,3290.3759297758406C879.9685555152856,3289.4077903848556,880.0956228375281,3287.886973027506,879.8812946587974,3287.884180946594C879.6132747110603,3287.8806894160616,878.5962925443661,3289.433109940307,878.3282695272778,3290.2610402477003C878.2054301155584,3290.6373570281776,879.0382128305149,3291.717180993718,879.2661741313995,3291.4934093039737C879.3421369445065,3291.4188110542254,879.5309625949736,3290.913772647028,879.6880974916894,3290.3759297758406ZL879.6880974916894,3290.3759297758406ZM874.4091642039408,3288.3095811102517C874.4156335029604,3287.8129790716375,874.1597110496728,3287.7232674715497,873.9821954396167,3288.174452435151C873.8712340737007,3288.4645462872863,873.8695463845677,3288.5940981694216,874.0078442669789,3288.6822848291163C874.2521756063223,3288.847425887298,874.4039605037799,3288.709032132765,874.4091642039408,3288.3095811102517ZL874.4091642039408,3288.3095811102517Z" style="fill: rgb(3, 3, 3);"/></g></svg>