<svg xmlns:xlink="http://www.w3.org/1999/xlink" width="47.99998683286509" xmlns="http://www.w3.org/2000/svg" id="screenshot" version="1.1" viewBox="-0.0000024980461148516042 -0.0000025493520752206678 47.99998683286509 47.99998683286526" height="47.99998683286526" style="-webkit-print-color-adjust: exact;"><g id="shape-461a355a-5ced-11ec-b471-07a139318957"><g id="shape-461a355f-5ced-11ec-b471-07a139318957"><ellipse cx="24" cy="24" rx="24" ry="24" transform="matrix(1.0000000376316542,1.885971796620903e-22,1.9852334701272664e-22,1.0000000376316573,-9.031597016928572e-7,-9.031597762998445e-7)" style="fill: rgb(238, 244, 237); fill-opacity: 1;"/></g><g id="shape-da8c6920-5d73-11ec-b471-07a139318957" width="512" height="512"><g id="shape-da8cb740-5d73-11ec-b471-07a139318957"><rect x="12" y="12" transform="matrix(0.9999999999999993,0,0,1.0000000000000002,1.4210854715202004e-14,-7.105427357601002e-15)" width="24" height="24" style="fill: rgb(255, 255, 255); fill-opacity: 0;"/></g><g id="shape-b319f140-5d88-11ec-b471-07a139318957"><g id="shape-da8eb310-5d73-11ec-b471-07a139318957"><path fill-rule="evenodd" clip-rule="evenodd" d="M19.97278779338643,13.938677585830874C20.014983105886472,13.921743601456,20.106205762136483,13.888026023330895,20.218740918386402,13.888026023330895C20.330330762136498,13.888026023330895,20.420865918386426,13.921159226455757,20.463018262136416,13.93795571083092C20.515440137136352,13.958834226455792,20.564768262136454,13.984490867080922,20.607608105886584,14.009030320205966C20.69388935588654,14.05846586708094,20.789365918386352,14.123933054580903,20.888709668386525,14.198479538956008C21.08924482463658,14.349007663955945,21.339022168386407,14.562016648330882,21.618276074636583,14.826265867080792C22.177987012136498,15.355881492081153,22.877346387136413,16.111538523330637,23.56368623088656,17.029995554580637C24.926869824636583,18.85413930458094,26.289494824636563,21.388651023331022,26.31978779338641,24.108315085831237C26.320260449636578,24.13899477333075,26.320475293386494,24.16976039833071,26.320475293386494,24.200526023330895C26.320475293386494,27.570307273330855,23.588694043386397,30.302088523330895,20.218912793386494,30.302088523330895C16.869735059011532,30.302088523330895,14.150857324636547,27.603693992080935,14.117651074636456,24.262315085830778C14.11733740276145,24.241776023331113,14.117178418386402,24.221193992080998,14.117178418386402,24.200568992081116C14.117066699636439,21.471236960830993,15.480735840261389,18.912877585830984,16.850601074636586,17.06904985145593C17.540408496511418,16.14057250770611,18.24501435588661,15.375367820206066,18.809194043386583,14.838731101455778C19.090682324636532,14.570967038956042,19.342522168386438,14.355057663955904,19.544604199636524,14.202492820205862C19.644678418386434,14.126940867081203,19.740799512136448,14.060635788956006,19.827553418386458,14.010602976456084C19.870608105886504,13.985767038955828,19.920151074636408,13.959805320206215,19.97278779338643,13.938677585830874ZZM17.67839404338656,17.684057273331064C16.362699512136544,19.454971335831033,15.148329590261426,21.795049460831024,15.148428418386402,24.2004830545809C15.148428418386402,24.21629555458071,15.148553027761409,24.232022117081215,15.148797949636446,24.247619773331053L15.14882373088642,24.24920961708108L15.148840918386554,24.250756492080882C15.175743652761412,27.027826804580855,17.435414355886394,29.270838523330895,20.218912793386494,29.270838523330895C23.019186230886362,29.270838523330895,25.289225293386494,27.000799460830876,25.289225293386494,24.200526023330895C25.289225293386494,24.17457289833078,25.289010449636578,24.148705710830882,25.28862373088657,24.12288149208075L25.28862373088657,24.121850242080882L25.28862373088657,24.120818992081013C25.262197949636402,21.71895180458091,24.046010449636583,19.3981666483312,22.737612012136424,17.647314695205978C22.08809638713649,16.778142820205858,21.42835419963643,16.066301023331334,20.909506543386442,15.575318601456047C20.649459668386555,15.329270945205963,20.430104199636503,15.143706101456019,20.269615918386478,15.02324321083097C20.251697949636423,15.009781101455701,20.23489716838651,14.997431882705769,20.219213574636456,14.986143992080997C20.202713574636448,14.998072117080937,20.184967480886428,15.011177585830865,20.165975293386396,15.025516257706158C20.003811230886413,15.147968601455887,19.782264355886525,15.336403757705966,19.519940137136473,15.585940476456017C18.996408887136454,16.083909617080963,18.331381543386442,16.805157273330906,17.67839404338656,17.684057273331064ZZ" style="fill: rgb(71, 102, 67);"/></g><g id="shape-da90aee0-5d73-11ec-b471-07a139318957"><path fill-rule="evenodd" clip-rule="evenodd" d="M21.646893262136473,27.459619773330814C21.646893262136473,27.459619773330814,21.646893262136473,27.459619773330814,21.646893262136473,27.459619773330814ZL21.646893262136473,27.459619773330814ZC21.646893262136473,27.459619773330814,21.646893262136473,27.459619773330814,21.646893262136473,27.459619773330814ZZM21.64457294963654,27.460479148330933C21.46805732463639,27.526865867080915,21.377822949636595,27.72331899208075,21.44292060588657,27.900693992080733C21.508362012136388,28.078885398330613,21.705889355886427,28.170322898330824,21.884123730886472,28.10488149208072L21.765615918386402,27.78218617958055C21.884123730886472,28.10488149208072,21.884209668386518,28.104838523330955,21.884338574636388,28.104795554580733L21.884596387136412,28.104709617080744L21.885154980886398,28.104494773330998L21.886358105886416,28.104065085830825L21.889322949636437,28.10294789833074C21.891471387136505,28.102131492080616,21.89409248088657,28.101100242080975,21.897143262136467,28.099897117080673C21.90320185588655,28.09749086708075,21.910979199636472,28.094354148330694,21.920389355886357,28.090358054580975C21.939252637136406,28.082365867080853,21.96464716838642,28.0710221170807,21.996014355886473,28.055811179580814C22.058748730886464,28.02534633583059,22.145373730886604,27.97924086708076,22.25142060588638,27.912897117080774C22.463643262136543,27.78012367958104,22.75265107463656,27.566826804580614,23.082908887136398,27.23656899208072C23.413166699636463,26.906311179580825,23.617740918386403,26.626026023330496,23.742006543386367,26.42063539833066C23.804053418386502,26.318026023330958,23.845862012136422,26.234451804580658,23.873233105886527,26.173135398330714C23.886897168386497,26.14249867958074,23.896908887136533,26.117404929580744,23.904041699636423,26.09836977333066C23.907565137136487,26.088830710830734,23.910401074636468,26.080838523330613,23.912592480886417,26.074350242080754C23.913709668386446,26.07112758583071,23.914612012136388,26.068291648330614,23.915428418386398,26.065842429580698C23.915600293386433,26.065369773330758,23.91572919963653,26.06489711708059,23.91590107463651,26.064424460830878C23.916115918386538,26.06373696083051,23.916287793386573,26.063092429580593,23.916502637136432,26.06249086708067L23.916932324636548,26.061029929580855L23.917147168386407,26.060342429580714L23.91727607463639,26.060041648330753C23.917319043386442,26.059869773330774,23.91736201213655,26.059697898330796,23.588608105886408,25.9591939920806L23.91736201213655,26.059697898330796C23.97287763713655,25.87815492958066,23.870697949636508,25.685998679580734,23.689154980886542,25.63048305458051C23.509115918386442,25.575440085830905,23.318635449636588,25.675428367080713,23.261315137136478,25.854135398330754C23.26110029338645,25.854822898330895,23.260670605886503,25.85602602333074,23.25998310588659,25.857787742080745C23.257791699636357,25.86367446083068,23.25315107463655,25.875619773330754,23.245287793386467,25.89323696083079C23.229561230886418,25.928471335830864,23.200987012136352,25.986693992080745,23.15376435588638,26.064768210830835C23.059362012136376,26.2207877420808,22.889549512136398,26.45763149208051,22.596760449636463,26.750420554580614C22.303971387136528,27.04320961708072,22.05586982463649,27.224279929580916,21.886744824636537,27.33006899208067C21.802096387136487,27.38304946083076,21.736998730886512,27.417295554580733,21.64457294963654,27.460479148330933ZC21.675037793386423,27.447416648330773,21.660299512136362,27.45390492958063,21.64457294963654,27.460479148330933ZC21.647924512136456,27.459147117080875,21.645432324636488,27.46013539833075,21.64457294963654,27.460479148330933ZZ" style="fill: rgb(71, 102, 67);"/></g><g id="shape-da91c050-5d73-11ec-b471-07a139318957"><path fill-rule="evenodd" clip-rule="evenodd" d="M26.457373730886502,29.04847524208094C26.481350293386413,29.038850242081025,26.548338574636432,29.013026023330895,26.63539326213646,29.013026023330895C26.72171748088647,29.013026023330895,26.788190137136553,29.038377585830858,26.812252637136453,29.047959617080778C26.844822949636523,29.06093617958095,26.872709668386392,29.07571742958112,26.893162793386523,29.087447898330993C26.934670605886538,29.11120961708116,26.97587763713642,29.139869773331156,27.013518262136472,29.16814321083075C27.090346387136492,29.225850242080696,27.181225293386433,29.303709617080813,27.279151074636502,29.39635024208087C27.475904980886412,29.582533835830873,27.718936230886527,29.845373679580916,27.956940137136428,30.163858054580942C28.424998730886557,30.79021352333075,28.915787793386528,31.688432273330818,28.92687373088637,32.67439321083111C28.927045605886406,32.685693992080814,28.92713154338651,32.6969947733312,28.92713154338651,32.708338523330895C28.92713154338651,33.97398305458091,27.901123730886468,34.99999086708067,26.635479199636393,34.99999086708067C25.377783887136502,34.99999086708067,24.356760449636397,33.98691664833086,24.343912793386437,32.73218617958082C24.34378388713651,32.72423696083092,24.343740918386402,32.71633071083079,24.343740918386402,32.708338523330895C24.343697949636578,31.71760805458075,24.835561230886583,30.810279929581156,25.305725293386388,30.177436179581036C25.544889355886426,29.855557273331215,25.789639355886493,29.589494773330898,25.987854199636388,29.400947898331196C26.086510449636478,29.30714711708083,26.17803388713645,29.22829946083084,26.25533466838641,29.169904929580753C26.293233105886543,29.1413307108312,26.33461201213646,29.11236977333124,26.457373730886502,29.04847524208094ZC26.396744824636528,29.076533835831015,26.424717480886443,29.061580710831095,26.457373730886502,29.04847524208094ZZM25.995588574636372,30.689924460830753C25.570541699636408,31.262010398330858,25.203072949636578,31.987494773331036,25.203115918386402,32.708338523330895C25.203115918386402,32.71224867958085,25.20315888713651,32.716115867080816,25.203201855886448,32.719983054581235L25.203244824636386,32.72127211708107L25.203244824636386,32.7226041483309C25.210850293386443,33.506998679580875,25.849194043386433,34.14061586708067,26.635479199636393,34.14061586708067C27.42649091838655,34.14061586708067,28.06775654338651,33.49935024208071,28.06775654338651,32.708338523330895C28.06775654338651,32.700990867081146,28.067713574636457,32.69368617958071,28.06758466838653,32.686381492080955L28.06758466838653,32.685522117081064L28.06758466838653,32.684662742080945C28.059678418386568,31.963604148331115,27.690920605886447,31.24353383583116,27.268537793386372,30.678279929581095C27.061213574636497,30.400873679580855,26.851225293386392,30.174557273331175,26.688459668386372,30.02055727333095C26.670069043386434,30.003154929581115,26.6525377933865,29.98686977333091,26.6358659183864,29.97174477333124C26.618248730886478,29.987772117081022,26.59964326213651,30.005045554580875,26.580178418386538,30.02360805458079C26.415822949636436,30.179928367081175,26.204029980886503,30.40938149208091,25.995588574636372,30.689924460830753ZZ" style="fill: rgb(71, 102, 67);"/></g><g id="shape-da9283a0-5d73-11ec-b471-07a139318957"><path fill-rule="evenodd" clip-rule="evenodd" d="M26.629721387136442,33.20226430458092L26.629721387136442,33.20226430458092ZL26.629721387136442,33.20226430458092ZL26.629721387136442,33.20226430458092ZC26.628904980886432,33.2024361795809,26.628904980886432,33.2024361795809,26.629721387136442,33.20226430458092ZC26.629033887136416,33.20239321083113,26.629033887136416,33.20239321083113,26.629721387136442,33.20226430458092ZM26.629033887136416,33.20239321083113C26.629076855886524,33.20239321083113,26.629162793386513,33.20239321083113,26.629033887136416,33.20239321083113ZC26.62976435588655,33.20226430458092,26.630924512136403,33.202006492080955,26.629033887136416,33.20239321083113ZC26.636553418386484,33.20080336708088,26.64286982463642,33.199428367081055,26.629033887136416,33.20239321083113ZC26.668694043386438,33.19324086708116,26.694776074636366,33.186494773331106,26.727045605886474,33.176783835830975C26.792272168386376,33.15719008583096,26.879369824636456,33.12629555458079,26.968830762136463,33.08156508583079C27.040717480886542,33.04564321083103,27.09941279338642,32.99622914833094,27.141049512136533,32.95360414833067C27.16141669963639,32.932764304580814,27.176455762136527,32.914846335830816,27.185694043386377,32.90311586708094C27.190291699636532,32.897315085830996,27.193385449636537,32.89314711708107,27.194846387136522,32.891084617081106C27.19527607463641,32.89052602333095,27.19553388713655,32.890139304581,27.195705762136413,32.889924460831025C27.28177216838651,32.76316664833075,27.454076855886456,32.729350242080955,27.581737012136557,32.81451430458105C27.7100846683864,32.90010805458087,27.7446745121365,33.0735299295809,27.659080762136398,33.2018775858312L27.426748730886402,33.046846335831106C27.659080762136398,33.2018775858312,27.659037793386517,33.20192055458074,27.658994824636352,33.202006492080955L27.658694043386447,33.20239321083113L27.658307324636553,33.20299477333083L27.657362012136446,33.204412742080876C27.65663154338654,33.20544399208097,27.65581513713653,33.20664711708082,27.654869824636478,33.20802211708087C27.652936230886553,33.21077211708075,27.65052998088646,33.214209617080996,27.647651074636542,33.21824867958071C27.64180732463649,33.226283835831055,27.63398701213646,33.236811179580855,27.6241471683864,33.24927211708132C27.604510449636507,33.27410805458089,27.576580762136473,33.30719399208124,27.540529980886447,33.344061179580876C27.469416699636497,33.416850242080955,27.361565137136438,33.509705710830985,27.218651074636398,33.58120571083077C27.09322529338641,33.643897117080996,26.974717480886568,33.685619773331155,26.888049512136604,33.711701804581025C26.844350293386583,33.724850242081175,26.807912793386436,33.73426039833112,26.78161591838648,33.740576804580996C26.76842451213645,33.74371352333105,26.75776826213638,33.746119773330975,26.749904980886413,33.74779555458099C26.745994824636398,33.74865492958088,26.742772168386523,33.749299460831025,26.740322949636493,33.74981508583096L26.73718623088655,33.75041664833111L26.736026074636584,33.75067446083108L26.735295605886563,33.750803367080835C26.735252637136398,33.750803367080835,26.735209668386574,33.750803367080835,26.68248701213645,33.476533835831106" style="fill: rgb(71, 102, 67);"/></g><g id="shape-da936e00-5d73-11ec-b471-07a139318957"><path fill-rule="evenodd" clip-rule="evenodd" d="M31.5312956058865,22.350678367080945C31.560643262136523,22.338904929581076,31.636783887136403,22.309901023330895,31.734322949636578,22.309901023330895C31.831045605886402,22.309901023330895,31.906584668386472,22.338389304580915,31.935975293386548,22.35011977333079C31.974776074636452,22.36558852333087,32.00893623088638,22.383592429580858,32.03553388713658,22.398846335831195C32.08928779338652,22.429611960831153,32.1448463871364,22.46802602333082,32.19825654338649,22.508158835830955C32.30688154338645,22.589670554580835,32.438108105886386,22.701904929581133,32.58175263713656,22.837815085831153C32.87011591838643,23.110666648330835,33.22804560588651,23.497600242081035,33.57888544963657,23.967076804580984C34.27184248088645,24.894385398330996,34.98361982463655,26.206049460830855,34.999647168386446,27.63201039833075C34.99986201213653,27.648295554580955,34.9999909183864,27.664623679581155,34.9999909183864,27.680908835831133C34.9999909183864,29.484436179581053,33.53793623088649,30.94649086708091,31.73440888713651,30.94649086708091C29.94209638713653,30.94649086708091,28.487088574636573,29.502654929581013,28.468998730886483,27.714510398330958C28.468826855886448,27.703338523331013,28.468740918386402,27.69216664833084,28.468740918386402,27.6809518045809C28.468697949636578,26.248803367080882,29.181592480886366,24.924205710831075,29.87781513713651,23.987100242080942C30.230373730886413,23.512553367080955,30.590924512136553,23.12080727333091,30.88147919963643,22.844432273330995C31.02624091838652,22.7067603983312,31.158455762136498,22.593065085830858,31.267811230886423,22.510522117080882C31.321608105886412,22.469916648331036,31.377424512136372,22.431029929580973,31.431393262136453,22.39992055458083C31.458076855886418,22.384537742080738,31.492365918386497,22.366318992080778,31.5312956058865,22.350678367080945ZZM30.636643262136488,24.550850242081196C29.990092480886517,25.421096335830953,29.414010449636578,26.545674460830696,29.414053418386402,27.680908835831133C29.414053418386402,27.687654929580958,29.41409638713651,27.69440102333124,29.414225293386437,27.701104148330842L29.414225293386437,27.702522117081116L29.41426826213649,27.70398305458116C29.426557324636406,28.974740867080982,30.460643262136557,30.00117836708091,31.73440888713651,30.00117836708091C33.01586591838645,30.00117836708091,34.0546784183864,28.962365867080962,34.0546784183864,27.680908835831133C34.0546784183864,27.669006492081053,34.05459248088641,27.657147117081195,34.05442060588655,27.645330710830876L34.0543776371365,27.644385398330996L34.0543776371365,27.643440085831116C34.04191669963649,26.50880727333083,33.46437373088651,25.393037742081106,32.82164716838645,24.532975242080738C32.50453779338636,24.108658835830738,32.1829596683865,23.761858054580898,31.93202216838654,23.524455710831035C31.857815137136413,23.45424477333063,31.791471387136426,23.39516274208063,31.734795605886518,23.347467429581002C31.676916699636422,23.39632289833071,31.60902607463646,23.457037742080956,31.53301435588645,23.529354148331095C31.279713574636503,23.770279929580738,30.955428418386532,24.121764304580893,30.636643262136488,24.550850242081196ZZM31.904737012136366,23.218217429580818C31.904737012136366,23.218217429580818,31.904479199636512,23.218389304581024,31.904737012136366,23.218217429580818ZC31.904479199636512,23.21834633583103,31.904737012136366,23.218217429580818,31.904737012136366,23.218217429580818ZZM31.565455762136537,23.218947898330953C31.564940137136432,23.218690085830985,31.564682324636408,23.218561179581002,31.565455762136537,23.218947898330953ZC31.564682324636408,23.21851821083078,31.564940137136432,23.218690085830985,31.565455762136537,23.218947898330953ZZ" style="fill: rgb(71, 102, 67);"/></g><g id="shape-da945860-5d73-11ec-b471-07a139318957"><path fill-rule="evenodd" clip-rule="evenodd" d="M32.09899873088648,28.700256492081053L32.09899873088648,28.700256492081053ZL32.09899873088648,28.700256492081053ZC32.09852607463654,28.700514304580793,32.09848310588649,28.700514304580793,32.09899873088648,28.700256492081053ZC32.09856904338653,28.700471335831025,32.09856904338653,28.700471335831025,32.09899873088648,28.700256492081053ZM32.09856904338653,28.700471335831025C32.09856904338653,28.700471335831025,32.09865498088652,28.70042836708103,32.09856904338653,28.700471335831025ZL32.09856904338653,28.700471335831025ZC32.10316669963646,28.69780727333091,32.10711982463653,28.6955299295812,32.09856904338653,28.700471335831025ZC32.1233620121364,28.68594789833128,32.13994794963645,28.675893210830736,32.09856904338653,28.700471335831025ZC32.20328388713642,28.635803367081053,32.26245185588647,28.596358054580833,32.3279791996365,28.546901023330975C32.46436201213646,28.444076804581073,32.60581513713652,28.314783835830895,32.69188154338639,28.181752585830736C32.78370576213649,28.039869773330793,32.83969404338649,27.883377585831113,32.872350293386376,27.757264304580985C32.88842060588644,27.69530336708067,32.89813154338651,27.643440085831116,32.903760449636366,27.608291648331033C32.90651044963653,27.590803367080753,32.90822919963654,27.57765492958083,32.90921748088647,27.569748679581153C32.90969013713652,27.565795554580973,32.909947949636376,27.56313149208063,32.91007685588647,27.561928367081237C32.91011982463641,27.561670554580814,32.91011982463641,27.561455710830842,32.91016279338646,27.561326804580858C32.927221387136456,27.372865867081146,33.09351044963648,27.233561179580875,33.282186230886396,27.249932273330842C33.47133466838636,27.26634633583103,33.61136982463654,27.432979148331015,33.59495576213641,27.622127585831095L33.25249482463653,27.592393210830778C33.59495576213641,27.622127585831095,33.59495576213641,27.62221352333063,33.59495576213641,27.622299460831073L33.59486982463636,27.622858054581002L33.5947838871366,27.623760398331115L33.59461201213651,27.62599477333083C33.59444013713653,27.62771352333084,33.59422529338639,27.6298189920808,33.59396748088659,27.63231117958071C33.59345185588654,27.637295554581215,33.5927643558864,27.64382680458084,33.59177607463636,27.651818992080962C33.58988544963654,27.667760398330984,33.58696357463657,27.68958852333094,33.58270966838654,27.716315085830956C33.57420185588637,27.769639304580778,33.56027998088655,27.843330710831196,33.537893262136436,27.92974086708091C33.49363544963637,28.10036977333084,33.41362763713653,28.33192836708099,33.26912373088646,28.555236960831053C33.11886201213656,28.787483054581116,32.90341669963652,28.974053367080842,32.74194013713645,29.095826804581066C32.65853779338647,29.158690085830813,32.58355732463639,29.20874867958082,32.52890107463651,29.24333852333075C32.50148701213652,29.260697898330818,32.478971387136426,29.274361960830902,32.46272919963644,29.28394399208082C32.45460810588651,29.288756492080893,32.44807685588643,29.292580710830862,32.44326435588641,29.295330710831195C32.44085810588655,29.296705710830793,32.43888154338646,29.297822898331106,32.43737763713648,29.298682273330996L32.43544404338638,29.299799460830855L32.43475654338653,29.300186179581033L32.43432685588647,29.300401023330778C32.43428388713653,29.300443992080773,32.43419794963637,29.300486960830995,32.26666279338639,29.000307273331146" style="fill: rgb(71, 102, 67);"/></g></g></g></g></svg>